<?xml version="1.0" encoding="UTF-8"?>
<svg xmlns="http://www.w3.org/2000/svg" xmlns:xlink="http://www.w3.org/1999/xlink" viewBox="0 0 584.202 652.322" width="30">
  <defs>
    <style>
      .cls-1 {
        fill: url(#linear-gradient);
      }

      .cls-1, .cls-2, .cls-3, .cls-4, .cls-5, .cls-6, .cls-7, .cls-8, .cls-9, .cls-10, .cls-11 {
        stroke-width: 0px;
      }

      .cls-2 {
        fill: #21ad9f;
      }

      .cls-3 {
        fill: #52d8b2;
      }

      .cls-4 {
        fill: url(#linear-gradient-2);
      }

      .cls-5 {
        fill: #83e4b2;
      }

      .cls-6 {
        fill: #f5fbf2;
      }

      .cls-7 {
        fill: #fdfefe;
      }

      .cls-8 {
        fill: #9aefc0;
      }

      .cls-9 {
        fill: #1b4e5d;
      }

      .cls-10 {
        fill: #1cb5a6;
      }

      .cls-11 {
        fill: #23cbbf;
      }
    </style>
    <linearGradient id="linear-gradient" x1="491.697" y1="410.97" x2="491.717" y2="410.97" gradientUnits="userSpaceOnUse">
      <stop offset=".532" stop-color="#83e4b2"/>
      <stop offset="1" stop-color="#23cbbf"/>
    </linearGradient>
    <linearGradient id="linear-gradient-2" x1="23.677" y1="269.55" x2="559.187" y2="269.55" xlink:href="#linear-gradient"/>
  </defs>
  <g id="Layer_3" data-name="Layer 3">
    <path class="cls-1" d="M491.697,411c.01-.03.01-.06.02-.09v.12c-.01-.01-.01-.02-.02-.03Z"/>
    <path class="cls-4" d="M291.437,0C143.557,0,23.677,120.68,23.677,269.55c0,9.69.51,19.25,1.5,28.67.36,3.42.78,6.82,1.27,10.19,1.06,7.43,2.42,14.75,4.08,21.97,0,.02,0,.04.01.05.12.53.24,1.06.37,1.59,11.62,49.31,36.7,93.37,71.12,128.05.2.21.4.4.6.59,37.33,37.39,85.54,63.75,139.44,73.86,16,3.01,32.5,4.58,49.37,4.58,4.6,0,9.17-.12,13.72-.35.23-.01.45-.02.69-.04,16.89-.9,33.37-3.37,49.29-7.28.14-.03.27-.06.41-.1,22.41-5.55,43.71-13.94,63.51-24.76.95-.52,1.9-1.05,2.84-1.58.57-.32,1.13-.64,1.69-.96,27.37-15.66,51.73-36.05,71.98-60.05.25-.29.5-.59.74-.88,18.22-21.77,33.07-46.48,43.76-73.33,2.36-5.93,4.52-11.97,6.47-18.11,8.22-25.88,12.65-53.47,12.65-82.11C559.187,120.68,439.307,0,291.437,0ZM491.977,412.94c0,.01-.01.01-.01.01-1.58,2.24-3.22,4.42-4.91,6.56v.01h-.01v.01c-.01,0-.01.01-.02.01-.09.03-.17.07-.24.12-.09.05-.17.11-.23.17-.1.1-.19.21-.24.33-.06.09-.09.18-.12.27-.02.07-.04.13-.05.2-.04.21-.05.43-.05.66-.15.16-.31.32-.46.47-.1.1-.2.2-.29.29-.05.05-.1.1-.15.15h.08c-.61.9-1.24,1.78-1.87,2.65,0,0,0,.01-.01.01-1.22-1.21-2.77-.66-4.17-.66-29.84-.03-59.69-.16-89.53.06-8.9.07-17.78.49-26.68-.15-7.58-.54-14.09-3.09-19.22-8.91-4.32-4.92-9.02-9.43-14.8-12.66-.33-2.54-2.22-1.7-3.71-1.7-.25-.01-.49-.06-.71-.18-4.79-.02-9.42-2.84-14.32-.8-4-4.01-9.05-6.13-14.26-7.95-.91-4.56.97-5.72,5.49-5.62,14.82.31,29.66.1,44.49.16,1.89.01,4.49-.73,4.51,2.66,8.43,14.27,21.75,19.5,37.45,19.58,32.84.18,65.68.03,98.51.05,2.67,0,5.33.22,7.99.33-.35.62-.7,1.24-1.05,1.86-.02.02-.03.04-.04.06-.46.66-.9,1.31-1.37,1.95Z"/>
    <path class="cls-9" d="M38.367,359.74c-2.12-6.38-4.01-12.86-5.65-19.44h.15c1.76,7.04,3.62,13.53,5.5,19.44Z"/>
    <path class="cls-9" d="M57.767,404.22l-.17.37s-9.84-15.33-19.23-44.85c5.14,15.51,11.66,30.38,19.4,44.48Z"/>
    <polygon class="cls-2" points="413.146 268.625 287.066 204.57 93.455 287.787 93.455 321.708 410.183 321.708 413.146 268.625"/>
    <path class="cls-9" d="M491.697,411c.01-.03.01-.06.02-.09v.12c-.01-.01-.01-.02-.02-.03Z"/>
    <path class="cls-9" d="M542.777,304.76c-1.35-15.81-14.61-28.23-30.77-28.23-6.81,0-13.1,2.21-18.21,5.94v-34.1h-41.45v42.56h-8.63v-81.23l-25.15-25.15-22.55,22.55v107.45h-14.83v-123.48l-34.55-27.22v111.06l-13.23-11.77v-112.33l-40.86-40.87-41.83,41.83v107.07l-16.07,16.07v-134.08l-32.93,60.09v82.64l-19.18-10.14v-44.11l-31.55-31.55v61.26l-8.45-1.93v33.06h-14.35v-66.54l-15.32-9.63-22.29,30.46v38.71c-5.3-4.27-12.03-6.83-19.36-6.83-16.35,0-29.73,12.7-30.82,28.77l-15.22-6.87-.19-.09c.45,3.51.94,6.94,1.46,10.28,1.16,7.5,2.5,14.59,3.94,21.24.17.8.35,1.59.52,2.37.64,2.84,1.29,5.6,1.96,8.28,1.76,7.04,3.62,13.53,5.5,19.44,1.53,4.62,3.18,9.18,4.95,13.68q0,.01.01.02c4.18,10.61,9.01,20.88,14.44,30.78,45.37,82.63,132.82,138.59,233.25,138.59s188.19-56.16,233.49-139.04l.36.82s11.64-18.13,21.67-52.93c4.28-14.85,8.26-32.73,10.93-53.53l-14.69,6.63ZM493.347,410.99c-.46.66-.9,1.31-1.37,1.95,0,.01-.01.01-.01.01-1.58,2.24-3.22,4.42-4.91,6.56v.01h-.01v.01c-.01,0-.01.01-.02.01-.09.03-.17.07-.24.12-.09.05-.17.11-.23.17-.1.1-.19.21-.24.33-.06.09-.09.18-.12.27-.02.07-.04.13-.05.2-.04.21-.05.43-.05.66-.15.16-.31.32-.46.47-.1.1-.2.2-.29.29-.05.05-.1.1-.15.15h.08c-.61.9-1.24,1.78-1.87,2.65,0,0,0,.01-.01.01-1.22-1.21-2.77-.66-4.17-.66-29.84-.03-59.69-.16-89.53.06-8.9.07-17.78.49-26.68-.15-7.58-.54-14.09-3.09-19.22-8.91-4.32-4.92-9.02-9.43-14.8-12.66-.33-2.54-2.22-1.7-3.71-1.7-.25-.01-.49-.06-.71-.18-4.79-.02-9.42-2.84-14.32-.8-4-4.01-9.05-6.13-14.26-7.95-.91-4.56.97-5.72,5.49-5.62,14.82.31,29.66.1,44.49.16,1.89.01,4.49-.73,4.51,2.66,8.43,14.27,21.75,19.5,37.45,19.58,32.84.18,65.68.03,98.51.05,2.67,0,5.33.22,7.99.33-.35.62-.7,1.24-1.05,1.86-.02.02-.03.04-.04.06Z"/>
  </g>
  <g id="Layer_5" data-name="Layer 5">
    <path class="cls-9" d="M506.597,316.03v33.72H79.667v-36.62c.93-.83,1.75-1.79,2.41-2.89h139.77c-11.62,7.05-23.41,13.84-35.03,20.9-2.5,1.52-5.31,2.6-7.42,4.71,4.73,6.74,4.77,6.81,11.77,2.66,15.81-9.4,31.59-18.86,47.4-28.27h31.73c5,5.47,12.32,8.97,21.85,8.61.29-.01.59-.02.87-.03.3-.01.58-.03.87-.04.68-.05,1.36-.12,2.03-.21,7.05-.91,12.6-4,16.64-8.33h32.39c2.83,1.72,5.67,3.43,8.5,5.14,9.64,5.84,19.3,11.63,28.98,17.4.15.1.31.2.47.29,5.04,2.99,10.08,5.98,15.12,8.95,3.06-.45,3.46-3.22,4.77-5.04,1.5-2.08-.94-2.44-1.95-3.08-12.81-8.11-25.79-15.93-38.82-23.66h19.09c.12,6.3,1.19,6.3,9.42,6.31,7.33.01,7.76.01,7.82-6.31h12.17c0,1.14.28,2.27.83,3.31q.01.01.01.02c.85,1.63,2.35,2.99,4.49,3.72h.01c.78.26,1.64.44,2.58.51h.03c.11,0,.23,0,.35-.01l.34-.02c2.36-.22,4.02-1.46,5-3.14.06-.08.11-.16.15-.25.66-1.24.97-2.69.93-4.14h75.16c1.06,2.13,2.71,3.96,4.94,5.18.02.02.03.03.05.04.38.21.79.4,1.21.57Z"/>
  </g>
  <g id="Layer_1" data-name="Layer 1">
    <path class="cls-11" d="M90.996,118.966c0-.009.009-.009.018-.009s.027-.009.036-.009l-.009.009c-.009,0-.027.018-.036.018l-.009.009v-.018Z"/>
    <path class="cls-11" d="M90.987,118.966c.009-.08.027-.152.045-.214-.018.062-.027.134-.036.214h-.009Z"/>
    <path class="cls-9" d="M482.486,652.322c-1.293-1.472-3.227-1.153-4.847-1.635-11.817-3.523-20.199-13.431-20.54-25.638-.391-13.964-.183-27.946-.088-41.92.033-4.76,2.87-7.393,7.16-7.204,4.322.19,6.716,2.854,6.727,7.678.031,12.934-.007,25.869.017,38.803.014,7.515,4.454,13.123,11.597,14.754,7.467,1.704,15.572-1.75,18.338-8.298.996-2.359,1.054-5.224,1.081-7.863.128-12.487.078-24.976.134-37.464.023-5.224,2.031-7.325,6.768-7.265,4.716.06,6.737,2.18,6.75,7.354.032,13.083.021,26.166-.024,39.249-.052,15.125-9.564,26.169-24.542,28.59-.812.131-1.838-.259-2.285.86h-6.246Z"/>
    <path class="cls-9" d="M552.974,652.322c-2.939-2.077-6.662-1.783-9.836-3.324-3.756-1.824-7.498-3.558-10.434-6.617-2.449-2.551-3.195-5.328-.786-8.314,2.392-2.965,5.122-4.335,8.856-2.027,6.032,3.728,12.376,6.389,19.757,5.158,2.109-.352,4.066-.998,5.692-2.302,2.288-1.836,3.87-4.192,3.452-7.302-.414-3.078-2.738-4.563-5.394-5.298-6.277-1.737-12.769-2.813-18.897-4.952-14.917-5.209-18.707-21.851-7.878-33.359,3.127-3.322,6.815-5.742,11.219-6.933,11.605-3.139,22.038-1.101,30.829,7.399,2.468,2.387,4.204,5.047,1.198,8.459-3.384,3.842-5.343,4.315-9.443,1.402-5.06-3.596-10.598-5.175-16.765-4.497-4.55.5-8.565,3.736-9.092,7.279-.52,3.501,2.068,6.779,7.174,8.296,4.39,1.304,8.927,2.109,13.402,3.126,10.821,2.46,17.126,8.784,18.084,18.146.899,8.782-5.006,17.784-14.191,22.193-4.003,1.922-8.45,1.875-12.486,3.464h-4.461Z"/>
    <path class="cls-11" d="M195.181,652.322c-4.238-2.235-5.978-5.69-5.361-10.471.246-1.901-.21-3.901.09-5.786,1.828-11.486-2.27-21.015-9.001-30.027-4.688-6.277-8.545-13.173-12.837-19.75-3.399-5.209-1.681-7.377,1.521-9.861,3.113-2.415,7.572-1.482,10.096,2.254,4.892,7.242,9.439,14.718,14.136,22.092,1.104,1.733,2.24,3.446,3.648,5.608,4.656-7.51,9.074-14.653,13.51-21.784,1.567-2.519,2.994-5.152,5.201-7.201,2.999-2.785,6.271-2.515,9.319-.301,3.177,2.308,3.333,5.137,1.182,8.531-6.584,10.391-12.753,21.051-19.533,31.309-2.606,3.942-2.791,8.185-2.683,12.257.105,3.972-.04,8,.38,11.968.55,5.202-1.407,8.893-6.1,11.161h-3.569Z"/>
    <path class="cls-9" d="M524.457,310.24c-.14.26-.29.51-.44.76-.02.02-.03.05-.05.08-2.09,3.28-5.65,5.68-10.7,5.95-.27.02-.54.03-.81.03h-.01c-2.23.02-4.18-.35-5.85-1.03-.33-.13-.65-.28-.95-.44-.09-.04-.18-.08-.26-.13-.02-.01-.03-.02-.05-.04-2.23-1.22-3.88-3.05-4.94-5.18h-75.16c.04,1.45-.27,2.9-.93,4.14-.04.09-.09.17-.15.25-.98,1.68-2.64,2.92-5,3.14l-.34.02c-.12.01-.24.01-.35.01h-.03c-.88-.07-1.68-.23-2.42-.46-.06-.02-.11-.03-.16-.05h-.01c-2.14-.73-3.63-2.08-4.48-3.71-.01-.02-.02-.04-.03-.05-.27-.51-.47-1.04-.61-1.58v-.02c-.14-.55-.21-1.12-.21-1.69h-12.17c-.06,6.32-.49,6.32-7.82,6.31-5.61-.01-7.89-.01-8.81-2-.29-.61-.44-1.41-.53-2.46-.04-.54-.07-1.16-.08-1.85h-19.09c6.39,3.79,12.77,7.6,19.12,11.47h.01c4.24,2.57,8.46,5.17,12.67,7.79,2.35,1.45,4.69,2.92,7.02,4.4.1.06.21.12.33.18.3.15.65.29.98.45.09.04.18.09.26.14.1.05.2.12.29.18l.01.01c.06.04.11.08.15.13.15.13.26.27.33.44.16.38.09.87-.4,1.55-.08.11-.16.23-.24.35-1.13,1.8-1.66,4.27-4.53,4.69-5.04-2.97-10.08-5.96-15.12-8.95h-.01c-.16-.09-.31-.19-.46-.29-.34-.2-.68-.41-1.02-.61-5.83-3.47-11.65-6.96-17.46-10.46-3.42-2.05-6.84-4.11-10.25-6.18-.08-.05-.16-.1-.25-.15-2.83-1.71-5.67-3.42-8.5-5.14h-32.39c-3.9,4.18-9.21,7.21-15.92,8.22-.24.04-.48.08-.72.11-.23.03-.47.06-.7.08-.03.01-.06.01-.08.01-.42.05-.83.09-1.25.12-.08,0-.15.01-.23.01-.5.04-1.01.05-1.52.06-9.53.36-16.84-3.14-21.84-8.61h-31.73c-6.41,3.82-12.82,7.64-19.22,11.47-9.39,5.61-18.78,11.22-28.19,16.8-6.99,4.15-7.03,4.08-11.76-2.66.39-.4.81-.76,1.25-1.09.44-.33.9-.64,1.37-.93.31-.2.62-.38.94-.56,1.28-.72,2.61-1.37,3.86-2.13,1.37-.83,2.75-1.66,4.12-2.49.11-.07.21-.14.32-.2,3.78-2.26,7.56-4.5,11.35-6.74.58-.34,1.15-.68,1.72-1.02,4.39-2.6,8.78-5.19,13.16-7.82,1.45-.87,2.91-1.75,4.36-2.63H82.077c-.66,1.1-1.48,2.06-2.41,2.89-.47.42-.96.79-1.48,1.14,0,0-.01.01-.02.01-4.84,3.18-11.72,3.34-16.45.19-.03,0-.05-.02-.06-.03-.02-.02-.04-.03-.06-.05-.05-.03-.1-.07-.15-.11-1.47-1.01-2.7-2.36-3.58-4.04h-30.29c.65,6.54,1.59,13.02,2.81,19.41.04.25.09.49.14.73,0,.02,0,.04.01.05,2.28,11.86,5.51,23.44,9.59,34.68,0,.03.02.06.04.1.99,2.75,2.05,5.49,3.15,8.21q0,.01.01.02c13.19,32.49,33.51,61.91,58.7,86.63.2.21.4.4.6.59,38.05,37.15,87.11,63.61,139.44,73.86,20.67,4.07,41.86,5.59,63.09,4.23.23-.01.45-.02.69-.04,6.79-.45,13.59-1.2,20.38-2.25,9.75-1.08,19.4-2.77,28.91-5.03.14-.03.27-.06.41-.1,22.16-5.31,43.53-13.74,63.51-24.76.95-.52,1.9-1.05,2.84-1.58.57-.32,1.13-.64,1.69-.96,27.19-15.67,51.68-36.15,71.98-60.05.25-.29.5-.59.74-.88,18.49-21.93,33.45-46.73,43.76-73.33,7.38-19.04,12.38-39.02,14.56-59.53h-30.17ZM498.977,348.86c.39-.31.88-.45,1.49-.38.13.01.26.03.37.04h.21c1.1,0,1.71-.54,2.15-1.29.53-.94.8-2.2,1.39-3.14.01-.03.03-.06.06-.08.42-.64,1-1.12,1.95-1.23.2-.03.41-.04.64-.03h.18c.12,0,.23.01.34.02,1.34.11,2.04.94,2.49,1.96.03.06.06.12.09.19.01.02.01.04.02.06.38.94.59,1.98.93,2.76.01.01.01.02.01.02.3.68.7,1.15,1.39,1.17h.19c1.89-.12,2.72.82,2.59,2.67-.2,1.98-1.3,2.83-2.749,3.18,0,0-.002,0-.002,0-.019.009-.039.01-.058.01-.05.01-.09.02-.14.03-1.14.24-2.48.18-3.77.1-.02.01-.04,0-.06,0-1.06-.05-2.07-.12-2.91-.04v.24h-.01c-.69-.09-1.53-.04-2.42.01h-.06c-1.16.06-2.37.12-3.37-.11-.14-.03-.28-.06-.42-.11-1.03-.34-1.75-1.09-1.78-2.62,0-.33.02-.67.07-1,.03-.23.08-.44.13-.65,0-.02,0-.04.01-.05.05-.2.12-.39.2-.56.04-.1.08-.19.13-.28.15-.28.32-.54.54-.74.06-.06.12-.11.18-.15ZM462.367,333.99c.07-.1.15-.2.25-.3.08-.07.16-.14.25-.21.05-.04.1-.07.15-.11.16-.11.33-.21.5-.31.4-.23.82-.43,1.12-.61,3.57-2.18,7.17-4.34,10.77-6.48,3.6-2.14,7.2-4.26,10.82-6.38,1.03-.61,3.05.52,4.46,2.03.33.35.63.72.87,1.1.07.11.14.22.19.33.12.19.21.39.28.58.04.08.06.17.08.24.09.25.13.48.13.71.02.2,0,.37-.04.52-.04.15-.11.29-.19.42-.05.08-.12.15-.19.22-.22.21-.49.37-.76.53-.13.08-.27.16-.39.24-3.52,2.2-7.03,4.41-10.55,6.61-3.51,2.21-7.03,4.41-10.55,6.6-1.37.85-2.32.96-3.03.66-.12-.06-.24-.12-.34-.19-.11-.07-.2-.14-.29-.23-.15-.13-.28-.28-.41-.45-.06-.09-.13-.18-.18-.27-.06-.08-.12-.16-.17-.25-.07-.12-.14-.24-.21-.37-.04-.07-.07-.13-.11-.2-.09-.17-.18-.35-.26-.52-.08-.16-.16-.31-.24-.46-.17-.32-.34-.63-.54-.91-.07-.11-.15-.21-.24-.31-.04-.05-.08-.1-.13-.14-.08-.09-.17-.18-.27-.25-.99-.75-1.08-1.35-.78-1.84ZM420.007,341.64c.01-.01.03-.02.05-.04,7.72-5.23,18.79-5.28,26.63-.26.14.09.27.19.41.28,2.96,1.96,5.42,4.68,7.01,8.13,1.17,2.48,1.87,5.33,2.01,8.56.02.42.03.84.03,1.27,0,.42-.01.84-.03,1.25-.27,7.8-3.82,13.41-8.83,16.84h-.01c-7.85,5.39-19.24,5.42-27.15.11-.08-.05-.16-.11-.24-.17-4.7-3.23-8.12-8.39-8.72-15.48-.05-.43-.08-.85-.09-1.28-.02-.35-.03-.69-.03-1.03v-.28c.03-3.75.77-7.01,2.06-9.79,1.59-3.44,4.01-6.14,6.9-8.11ZM328.837,353.58c-.69.42-1.54.63-2.59.53h-.01c-.98.13-1.79-.19-2.42-.76-.78-.68-1.28-1.76-1.48-2.9-.04-.23-.07-.46-.08-.7-.08-1.06.11-2.14.58-2.95.01-.01.02-.03.03-.04.53-.88,1.39-1.45,2.61-1.39,1.49-.19,2.66.14,3.51.76.02.01.03.02.04.03.98.72,1.54,1.84,1.69,3.02.01.1.02.2.02.3.01.09.02.18.02.27v.11c-.01,1.49-.66,2.95-1.92,3.72ZM254.247,353.17c-.83-.76-1.32-1.94-1.43-3.15v-.01c-.01-.04-.01-.09,0-.13-.01-.04-.01-.09-.01-.13-.08-1.03.12-2.07.61-2.85,0-.01,0-.03.02-.04.51-.84,1.34-1.41,2.47-1.41.15,0,.3.01.45.03,1.19-.08,2.19.23,2.95.79.01,0,.01.01.02.01,1.14.82,1.78,2.15,1.87,3.47.11,1.37-.36,2.73-1.47,3.54-.05.04-.11.08-.18.11-.63.42-1.46.65-2.49.61-1.13.16-2.05-.18-2.74-.77-.01-.01-.02-.02-.04-.04-.01-.01-.02-.02-.03-.03ZM148.227,382.07c-.17,0-.33,0-.49-.01-.1.01-.21,0-.31-.01-.17-.01-.34-.02-.51-.03-.2,0-.39-.02-.59-.04-.12-.02-.24-.03-.36-.05-.11-.01-.22-.02-.33-.03-.22-.02-.43-.05-.64-.09-.07-.01-.14-.02-.21-.03-6.7-1.02-11.5-4.64-14.42-9.41-.04-.07-.09-.14-.13-.21q-.01-.01-.01-.02c-3.96-6.6-4.36-15.32-1.25-22.39.57-1.28,1.25-2.52,2.05-3.67,0,0,0-.01.01-.02,3.61-5.2,9.62-8.81,17.97-8.71h.25c2.06.09,3.98.38,5.76.85.02,0,.04,0,.05.01,6.19,1.61,10.6,5.31,13.26,9.91q0,.01.01.02c.3.53.58,1.06.84,1.61,3.3,7.02,2.83,15.68-1.34,22.26-.04.07-.08.14-.13.2-2.99,4.65-7.86,8.24-14.56,9.42-.35.08-.7.13-1.06.17-.42.07-.84.12-1.27.16-.83.07-1.7.11-2.59.11ZM90.577,324.11c.02-.19.12-.36.29-.5.92-1.27,1.53-2.79,2.59-3.99.4-.46.88-.88,1.46-1.22,1.63.92,3.25,1.88,4.85,2.84.25.16.51.32.76.47,0,0,.01-.01.01,0,2.97,1.8,5.9,3.67,8.83,5.55.22.14.44.28.66.42,2.64,1.69,5.27,3.39,7.92,5.05.18.12.41.23.66.34.06.03.13.06.19.09.13.06.26.12.38.19.13.06.25.13.36.21.11.07.22.15.31.24.05.04.1.09.13.13.36.4.4.93-.29,1.69-.05.06-.12.12-.18.18-1.04,1-1.61,3.05-2.73,4.01-.18.16-.38.29-.6.38-.6.25-1.34.2-2.32-.35-.92-.76-4.19-2.56-7.99-4.72-.08-.04-.15-.09-.23-.13-4.54-2.58-9.79-5.62-12.73-7.98-.01-.01-.02-.02-.04-.03-1.46-1.16-2.34-2.16-2.29-2.85,0,0-.01-.01,0-.02ZM78.967,346.42c.07.4.15.74.25,1.03.02.06.04.13.07.18.02.07.05.13.08.18.09.18.19.32.3.43v.01c.47.45,1.19.46,2.43.19.789-.108,1.44.145,1.937.593.029.031.065.054.093.087.03.03.05.07.08.1.14.16.27.34.38.53.31.55.48,1.21.52,1.87v.04c.04.855-.169,1.729-.643,2.368-.031.035-.053.078-.087.112-.06.06-.11.11-.16.16-.43.44-1.03.72-1.82.72h-.02c-1.23-.19-2.78-.08-4.41.07h-.05c-2.45.21-5.08.49-7.12-.07-1.69-.44-2.98-1.46-3.4-3.56-.04-.37-.03-.71.03-1,0-.07.02-.12.03-.19.08-.32.22-.56.4-.74.03-.04.06-.08.11-.11.53-.43,1.32-.45,2.08-.55.02,0,.04-.01.06-.01.65-.09,1.25-.24,1.63-.75.25-.33.4-.8.41-1.5.13-.9.55-1.62,1.13-2.11.06-.05.11-.1.17-.15,1.27-.98,3.14-1.03,4.34-.09.01,0,.01.01.02.01.01.01.02.01.02.01.04.03.07.06.1.1.54.46.93,1.14,1.04,2.04ZM353.047,494.79c-.07.04-.13.07-.2.11-.46.25-.91.47-1.34.68h-.01c-.73.35-1.41.64-2.02.86-1.85.68-3.17.8-4.06.56-.81-.23-1.24-.77-1.35-1.49v-.03c-.05-.21-.05-.43-.03-.65.01-.09.02-.18.04-.28.01-.09.02-.18.05-.28.01-.05.03-.1.04-.16.02-.09.06-.2.09-.31.11-.33.25-.67.43-1.01.06-.12.13-.24.2-.36,1.03-1.72,2.9-3.45,5.17-4.22q.01.01.01,0c1.91-.64,4.08-.59,6.28.72.07.03.13.07.2.11.83.52,1.65,1.22,2.48,2.13,2.57,3.09,3.45-1.94,5.6-1.69.09-.05.19-.11.28-.16.77-.38,1.65-.52,2.53-.44.06,0,.11.01.16.02,1.04.13,2.07.54,2.87,1.17.02.01.03.02.05.04.71.56,1.23,1.28,1.47,2.12.01.09.03.19.05.28.11.56.07,1.17-.13,1.8-.06.21-.12.39-.19.55-.2.43-.46.74-.77.96-.1.07-.21.13-.32.19-.73.37-1.66.36-2.61.23-.13-.02-.26-.03-.39-.06-.78-.12-1.54-.29-2.2-.38-4.42,3.23-8.53,2.63-12.38-1.01ZM493.387,410.93c-.02.02-.03.04-.04.06-.46.66-.9,1.31-1.37,1.95,0,.01-.01.01-.01.01-1.58,2.24-3.22,4.42-4.91,6.56v.01c.01,0,.01-.01.02-.01h.01c.01.18-.01.36-.07.52-.03.13-.07.26-.13.38-.12.24-.3.45-.49.66-.03.03-.06.06-.09.08-.21.2-.45.4-.67.61-.1.1-.2.2-.29.29-.05.05-.09.1-.15.15h.08c-.61.9-1.24,1.78-1.87,2.65,0,0,0,.01-.01.01-.39.55-.79,1.09-1.19,1.63-.01.02-.03.03-.04.05-1.55,2.1-3.17,4.15-4.83,6.18-.03.03-.06.07-.08.1-.1.11-.19.22-.29.34-3.66,4.45-7.56,8.72-11.63,12.84-.05.05-.1.1-.15.14-3.56,3.59-7.25,7.05-11.06,10.4-.03.02-.05.05-.08.07-.73.64-1.47,1.29-2.21,1.92-.04.04-.09.08-.15.12-1.32,1.15-2.65,2.26-3.99,3.37-.03.02-.06.05-.09.07-5.61,4.62-11.4,9-17.27,13.16-1.67.21-3.37.34-5.08.42-.03.01-.07.01-.1,0-4.55.24-9.22.12-13.86.03h-.16c-3.53-.06-7.05-.12-10.49.04-.13,0-.26,0-.39.01-.16,0-.31-.01-.47-.02-.06,0-.12-.01-.18-.01-.47-.02-.95-.07-1.42-.07-.91,0-1.8.17-2.56.94.13.39.23.75.3,1.09.03.15.05.3.07.45.18,1.87-.88,2.7-2.51,3.03-.02.01-.04.01-.06.01-1.68.33-3.97.13-6.06-.02-.05,0-.09-.01-.14-.01-1.56-.1-3-.17-4.01.04q-5.58,0-5.08-5.49c-19.86-1.02-39.7-.66-59.56.22,4.47,2.23,7.45,5.07,9.43,8.35.01.01.02.03.02.04,2.5,4.16,3.4,9,3.67,14.18v.02c.22,4.27.02,8.76-.04,13.26,0,5.64-4.7,2.19-6.98,3.46-.54.3-.91.38-1.15.09-.03-.03-.06-.06-.08-.11-.09-.16-.17-.39-.22-.7-.03-.16-.05-.33-.07-.53,0-.1-.01-.2-.02-.32-.04-.44-.05-.97-.06-1.6,0-.22,0-.44.01-.67-.01-.11-.01-.21,0-.32.06-3.97.3-8.6-.06-12.97.01-.01.01-.03,0-.04-.33-4.06-1.18-7.9-3.15-10.81,0-.01-.01-.02-.02-.03-1.67-2.46-4.17-4.25-7.84-4.92-.18-.04-.37-.07-.56-.1-.67-.1-1.37-.16-2.12-.19h-.09c-.72.03-1.4.09-2.04.19-.19.03-.39.07-.58.11-3.3.63-5.63,2.23-7.26,4.45-.05.07-.1.13-.15.2-.02.01-.03.01-.03.02-1.98,2.8-2.91,6.5-3.3,10.45v.01c-.44,4.51-.2,9.33-.02,13.48,0,.11.01.21.01.31.01.24.02.48.03.71.01.47.02.94.04,1.41.03.72-.02,1.31-.15,1.78-.05.19-.11.36-.19.52-.52,1.01-1.59,1.25-3.28,1.02-2.07-.28-4.93,1.15-4.82-3.02-.07-4.68-.38-9.76-.16-14.68v-.09c.24-5.74,1.17-11.29,3.96-15.83.04-.06.08-.12.12-.18,2.05-3.28,5.09-6.01,9.56-7.87-1.01.03-2.02.06-3.04.09-4.01.13-8.03.28-12.04.37-.84.01-1.69.04-2.53.05-4.09.08-8.19.09-12.29-.02-.04,0-.08,0-.12-.01h-.2c-2.62-.09-5.24-.22-7.85-.43-.73.86-1.15,2.75-1.35,5.26-.05.59-.09,1.18-.11,1.77-.16,3.1-.08,6.89.06,10.79.01.05.01.09,0,.13.25,7.19.68,14.75.22,19.03v.03c-.2,1.88-.56,3.14-1.19,3.45-.01,0-.02.01-.03.01-.25.11-.54.08-.88-.13-1.1-.29-2.62-.08-3.92-.29-.26-.04-.51-.1-.75-.18-.24-.08-.47-.18-.67-.32-.2-.13-.39-.3-.56-.5-.44-.55-.71-1.38-.7-2.62v-.01c.02-4.88.03-9.76.03-14.64.01-4.3.01-8.6.02-12.89v-.89c.01-2.69.03-5.39.05-8.07v-.02c-8.77.01-17.52,0-26.29,0-.02,6.12,0,12.24-.04,18.36-.02,3.65-.07,7.3-.15,10.95-.01.44.14,1.08.25,1.72.26,1.42.32,2.88-1.99,2.44-.8-.15-1.78-.16-2.76-.26-.27-.03-.55-.07-.82-.11-1.53-.28-2.89-.95-3.28-2.99-.08-.41-.12-.87-.12-1.39v-8.7c0-.31-.01-.64-.01-.96-.03-4.08-.08-8.16-.17-12.22-.01-.19-.01-.37-.01-.56-.05-1.85-.1-3.69-.16-5.53v-.02c-4.72.08-9.45.16-14.17.24.03.19.04.37.05.54.03.33.03.63.02.92-.01.13-.02.26-.05.38,0,.07-.02.14-.03.2,0,.01,0,.02-.01.03-.27,1.47-1.17,2.31-2.25,2.61-.2.05-.43.09-.66.11-.1.01-.19.02-.29.02h-.07c-1.35-.03-2.78-.77-3.57-2.11-.01-.03-.02-.05-.04-.08-.52-.91-.75-2.08-.46-3.48-1.06-.08-2.18-.06-3.3-.01h-.01c-1.71.08-3.43.22-5.09.18h-.04c-1.23-.04-2.41-.18-3.5-.52-.19-.07-.36-.16-.52-.24-2.52-1.45-.59-4.87-1.29-7.26-.31-1.08-.71-2.08-1.18-2.98-.64-1.21-1.42-2.26-2.35-3.13-.69-.65-1.47-1.21-2.34-1.66-.57-.3-1.18-.55-1.83-.76-.33-.1-.66-.19-1-.27-1.03-.23-2.14-.35-3.34-.36-.03,0-.06-.01-.09-.01-3.3-.41-8.1-.26-13.36-.05-.07,0-.13.01-.2.01-6.86.28-14.47.66-20.53.09-.03-.01-.05-.01-.08-.01-3.88-.36-7.11-1.12-9.08-2.58-.04-.03-.09-.06-.13-.1-.02,0-.03-.02-.05-.03-.16-.12-.29-.24-.42-.37-1.64-1.46-3.24-2.95-4.83-4.45-1.58-1.51-3.15-3.03-4.71-4.57-3.1-3.08-6.17-6.19-9.26-9.29-.31-.31-.6-.62-.85-.94-.129-.169-.258-.347-.367-.526-.042-.071-.086-.141-.123-.214-.06-.12-.12-.24-.17-.36-.06-.12-.1-.24-.12-.36-.02-.04-.03-.09-.04-.14-.02-.07-.03-.14-.04-.22-.05-.21-.06-.44-.05-.67-.01-.02-.03-.03-.04-.04-1.7-1.75-3.32-3.54-4.9-5.38-1.82-2.12-3.56-4.31-5.25-6.54-.01-.02-.02-.04-.03-.05-2.59-3.43-5.02-6.97-7.36-10.6v-.01c-2.86-4.42-5.55-8.96-8.2-13.54v-.01c-2.02-3.53-4.01-7.07-6-10.62,0,0,0-.01-.01-.01-1.37-2.43-2.74-4.86-4.13-7.28-.22-.37-.43-.75-.65-1.14,15.64,0,30.72.02,45.82-.02.81,0,1.39.24,1.86.63.12.1.23.2.33.31.32.34.6.75.88,1.18.77,1.29,1.6,2.52,2.51,3.66.05.07.1.13.15.2.86,1.12,1.78,2.16,2.76,3.14.01.01.02.02.03.03,3.06,3.09,6.6,5.5,10.4,7.22.04.02.08.04.13.07,6.54,2.94,13.87,3.85,20.96,2.68.04-.01.08-.02.12-.03,7.8-1.3,15.31-5.12,21.22-11.51.43-.91.89-1.72,1.4-2.46.31-.44.62-.85.95-1.23.22-.25.45-.49.68-.72.25-.25.5-.47.76-.68.23-.19.47-.37.71-.54.53-.36,1.09-.68,1.67-.95.37-.18.76-.33,1.16-.47.5-.17,1.01-.32,1.54-.43.17-.04.33-.07.5-.1,1.16-.22,2.4-.32,3.72-.32.62,0,1.26.02,1.92.06,1.69.11,3.38.18,5.08.23,3.18.08,6.37.07,9.56.03,5.67-.07,11.34-.23,17.01-.1,1.66.16,2.81-.08,3.58-.59.02,0,.03-.01.05-.03,1.16-.79,1.46-2.2,1.46-3.87v-.04c0-1.43-.22-3.02-.3-4.53-.01-.02-.01-.05,0-.07-.07-1.02-.07-2,.1-2.86.16-2.88-.1-5.27-1.98-7.29-.13-.15-.27-.29-.42-.42-.15-.15-.3-.28-.47-.41-.33-.28-.7-.54-1.11-.8-.28-.18-.54-.37-.78-.57-.12-.1-.23-.2-.34-.31-1.44-1.38-2.11-3.26-2.1-5.43,0-.23.01-.47.03-.71,0-.08,0-.16.01-.24.06-.76.2-1.54.42-2.35.06-.25.13-.51.21-.76,0-.01,0-.03.02-.04.06-.21.13-.42.21-.63.3-.88.68-1.78,1.14-2.69.08-.15.16-.3.26-.45.255-.415.537-.792.828-1.153.156-.184.309-.371.482-.537.28-.28.58-.53.89-.76.17-.14.34-.26.52-.36,1.28-.85,2.75-1.32,4.27-1.46.13-.01.28-.03.41-.03.02,0,.05-.01.07,0,3.38-.18,6.96,1.22,9.25,3.75.04.05.09.1.13.15,1.29,1.47,2.17,3.3,2.32,5.43.01.02.01.05.01.07.03.09.05.19.07.28.14.55.23,1.06.27,1.54.17,1.88-.31,3.26-1.1,4.42-.03.04-.05.08-.08.12-1.14,1.62-2.88,2.77-4.22,4.14l-.03.03c-1.03,1.09-1.82,2.33-1.88,4.04.36,1.16.28,2.95.13,4.89,0,.05-.01.1-.01.15-.19,2.41-.47,5.05-.15,7.04,0,.02.01.04.01.06v.01c.25,1.5.83,2.61,2.07,2.98.05.02.11.03.17.04.35.09.75.12,1.21.08,12.19.02,24.37.26,36.55.28h.01c2.64.35,4.75.55,6.45.55h.11c4.4-.06,5.84-1.62,5.84-6.14v-.17c-.01-1.64-.2-3.65-.5-6.12.08-5.47.12-10.94.12-16.4.01-3.6-.01-7.2-.04-10.79-.21-1.01-.08-1.83.28-2.48.48-.9,1.41-1.45,2.47-1.67.02-.01.03-.01.05-.01.95-.2,2-.13,2.92.21.045.01.079.029.122.04.9.332,1.692.917,2.148,1.74.02.01.02.03.02.04.36.65.5,1.45.34,2.39v.06c-.05,2.88-.07,5.76-.09,8.64-.01.61-.01,1.22-.01,1.83-.02,3.74-.03,7.48-.06,11.21-.01,2.75-.04,5.49-.08,8.23-.03,1.6-.06,3.2-.1,4.8-.02.72.02,1.32.12,1.83.06.28.13.53.22.75.05.11.1.22.16.32.11.2.26.37.42.51.09.09.21.17.33.24.14.09.31.17.48.23.65.24,1.5.32,2.58.3,14.86-.23,29.73-.32,44.59-.21h.11c.7.04,1.27-.02,1.75-.17.02,0,.04-.01.06-.02,1.18-.36,1.71-1.25,1.9-2.39.01-.02.01-.04.01-.06.23-1.36-.01-3.08-.15-4.73,0-.03-.01-.07-.01-.1v-.02c-.11-1.19-.16-2.34.05-3.27-.01-1.22.03-2.41-.04-3.55,0-.1-.01-.2-.02-.3-.05-.59-.13-1.17-.26-1.74-.06-.28-.14-.56-.24-.84-.17-.47-.37-.93-.63-1.38-.16-.26-.34-.53-.54-.8-.13-.16-.27-.33-.41-.5,0-.01-.01-.01-.02-.02-.08-.08-.16-.17-.25-.26-.16-.16-.33-.33-.51-.5-.01-.01-.02-.01-.02-.01-.29-.25-.6-.5-.94-.75h-.01c-.57-.4-1.05-.87-1.47-1.38-.72-.89-1.22-1.91-1.51-3-.03-.11-.06-.22-.08-.33-.13-.52-.2-1.06-.23-1.6-.01-.13-.02-.27-.02-.41v-.08c-.01-1.31.23-2.65.7-3.9.14-.35.29-.7.45-1.04.51-1.01,1.16-1.94,1.96-2.74.13-.14.26-.27.4-.39.02-.02.05-.04.07-.06,2.53-2.58,5.41-3.42,8.14-3.1.05.01.11.01.16.02,5.047.69,9.524,5.354,10.109,10.301.009.11.026.219.031.329v.04c.01.19.02.36.02.54.06,2.26-.74,4.55-2.71,6.5-.42.43-.89.83-1.41,1.2-3.1,2.21-3.71,4.67-3.37,7.91.29,2.84-.74,6.26-.4,8.95.05.39.13.75.24,1.1v.01c.23.71.61,1.34,1.19,1.86,2.62,2.36,7.68.63,11.67.7,3.33.06,6.66.12,10,.17,5.58.08,11.16.1,16.74-.06,1.96-.26,3.6-.07,5.01.47.01,0,.02,0,.02.01,1.86.72,3.32,2.02,4.67,3.67.02.01.03.02.03.03,0,0,.01.01.02.02.8.99,1.57,2.11,2.34,3.29,8.81,9.3,19.12,14.13,32.3,11.71.53-.1,1.06-.21,1.58-.32.01-.01.03-.01.04-.01,7.26-1.61,11.79-4.2,15.11-6.98.01,0,.02-.01.03-.02,2.72-2.28,4.64-4.68,6.55-6.76,2.25-2.45,4.51-4.45,8.14-5.29.04-.01.09-.02.14-.03,1.82-.42,3.98-.54,6.65-.28h.01c8.19.4,16.4.31,24.91.23.02.01.05.01.08,0,3.59-.04,7.22-.08,10.93-.08v.01h-.01c-.12.22-.24.43-.36.65-1.81,3.23-3.15,5.64-4.5,8.04-.02.03-.03.07-.05.1-2.1,3.79-4.28,7.59-6.53,11.35-2.65,4.43-5.42,8.81-8.34,13.03Z"/>
    <path class="cls-5" d="M115.202,185.076c-.071.125-.143.259-.205.393.071-.134.143-.268.214-.393h-.009Z"/>
    <path class="cls-9" d="M288.902,621.747c0-10.93-.004-21.86.003-32.79.001-2.229-.136-4.478.105-6.684.454-4.159,3.206-6.592,7.07-6.541,4.115.055,7.007,2.704,7.024,7.013.079,20.517.035,41.035.011,61.552-.004,3.281-1.405,5.899-4.594,6.9-3.687,1.157-6.748-.377-9.009-3.312-4.981-6.468-9.809-13.054-14.791-19.521-4.892-6.351-9.857-12.647-14.888-18.887-.84-1.042-1.471-3.138-3.239-2.411-1.358.559-.63,2.39-.638,3.636-.064,10.556-.044,21.112-.069,31.669-.015,6.147-2.36,9.087-7.221,9.122-4.962.036-7.365-2.844-7.366-8.911-.003-19.476.032-38.953-.002-58.429-.006-3.43.206-6.622,4.098-7.977,4.056-1.412,6.919.54,9.245,3.518,10.147,12.992,20.231,26.032,30.352,39.044.893,1.148,1.89,2.217,2.838,3.322.357-.104.714-.208,1.071-.313Z"/>
    <path class="cls-9" d="M320.119,613.492c.002-9.657-.003-19.314.004-28.97.004-5.316,2.146-7.923,7.251-7.979,12.627-.137,25.257-.129,37.883.029,4.956.062,7.478,2.857,7.495,7.495.017,4.448-1.622,6.28-6.105,6.331-9.359.107-18.721.19-28.078.021-3.072-.055-4.281.756-4.007,3.944.266,3.098.26,6.248.044,9.351-.212,3.047.742,4.15,3.944,4.047,7.124-.23,14.26-.092,21.392-.06,5.157.024,8.214,2.299,8.286,6.072.072,3.792-2.99,6.252-8.081,6.295-7.428.063-14.858.103-22.284-.032-2.473-.045-3.485.637-3.341,3.24.181,3.257.194,6.548-.061,9.798-.243,3.095.761,4.116,3.948,4.035,8.909-.227,17.826-.147,26.74-.123,5.516.015,7.699,1.891,7.644,6.365-.057,4.64-2.665,7.196-7.653,7.224-12.331.069-24.662.063-36.993.06-6.558-.002-7.979-1.416-8.017-8.173-.054-9.657-.014-19.314-.012-28.97Z"/>
    <path class="cls-9" d="M413.5,625.202c-5.4,7.508-10.546,14.707-15.743,21.868-2.117,2.918-4.797,4.879-8.665,4.321-5.03-.726-7.119-4.769-4.193-8.974,6.012-8.64,12.228-17.15,18.665-25.477,1.961-2.537,1.647-4.062-.096-6.384-5.965-7.947-11.704-16.064-17.552-24.099-2.133-2.932-3.878-5.857-.167-8.845,2.972-2.393,8.327-2.044,10.938,1.066,2.757,3.284,5.126,6.9,7.586,10.426,3.043,4.362,6.005,8.782,9.171,13.425,5.08-7.2,9.987-14.208,14.955-21.171,1.83-2.565,3.889-4.945,7.289-5.396,2.851-.378,5.352.409,7.042,2.827,1.672,2.391.464,4.53-.986,6.501-6.062,8.24-11.978,16.599-18.331,24.61-2.231,2.813-1.958,4.517.057,7.116,6.086,7.852,11.979,15.855,17.83,23.885,3.356,4.606,3.29,6.745.184,9.03-3.538,2.602-8.808,1.935-11.532-1.706-3.196-4.272-6.153-8.722-9.247-13.072-2.306-3.242-4.666-6.446-7.206-9.949Z"/>
    <path class="cls-11" d="M37.879,651.423c-18.078-.14-33.842-13.745-37.11-30.466-3.526-18.042,5.303-35.115,22.013-42.568,12.011-5.357,27.627-2.791,36.365,6.041,1.995,2.016,4.159,4.066,1.465,7.181-3.989,4.613-6.501,5.477-9.939,2.845-7.614-5.827-15.909-6.376-24.26-2.468-8.6,4.025-12.751,11.783-12.912,20.843-.169,9.537,4.732,17.089,13.123,21.738,8.121,4.5,16.196,3.724,23.763-1.747,4.948-3.577,5.494-3.402,10.522,2.469,3.145,3.672.533,6.021-1.897,8.232-6.492,5.907-14.559,7.425-21.133,7.899Z"/>
    <path class="cls-11" d="M130.98,576.273c6.983,0,13.97-.147,20.948.047,5.508.153,8.997,3.788,8.604,8.647-.288,3.552-2.052,5.806-5.935,5.796-3.863-.01-7.742.213-11.585-.066-3.281-.238-4.295.732-4.288,4.143.032,16.341-.192,32.683-.405,49.023-.08,6.171-2.662,8.33-8.648,7.538-3.715-.492-5.845-3.055-5.532-6.74,1.462-17.194-.752-34.369-.224-51.556.066-2.138-1.072-2.386-2.774-2.359-3.862.06-7.726.025-11.589.015-5.71-.016-8.003-1.712-8.059-5.939-.057-4.342,3.548-8.216,8.102-8.304,7.126-.138,14.257-.037,21.385-.037,0-.069,0-.138,0-.207Z"/>
    <path class="cls-11" d="M91.653,613.959c.002,9.942.037,19.885-.014,29.827-.024,4.666-2.705,7.554-6.839,7.596-4.023.041-6.536-2.886-6.541-7.729-.016-15.424.168-30.851-.679-46.26-.26-4.735.803-9.411.168-14.195-.493-3.71,3.15-7.248,6.812-7.394,3.847-.153,7.007,2.769,7.054,6.992.116,10.386.038,20.775.04,31.162Z"/>
    <path class="cls-3" d="M70.102,119.573c.268-1.151.937-2.026,1.856-2.74.134,1.419.116,2.74-1.856,2.74Z"/>
    <path class="cls-3" d="M514.635,123.197c-1.937-.107-1.821-1.464-1.714-2.82,1.017.669,1.553,1.633,1.714,2.82Z"/>
    <path class="cls-9" d="M277.91,8.141c-17.61,6.337-26.535,19.448-28.534,37.7.062,2.82.125,5.632.196,8.443,1.571,5.819,3.276,11.594,6.319,16.86,1.856,2.214,3.704,4.427,5.552,6.64.339.339.669.669,1.009,1,.339.33.678.652,1.026.973.455.428.919.848,1.383,1.258.295.259.589.509.884.759,1.026.875,2.089,1.714,3.169,2.49.161.116.312.223.464.33,1.241.884,2.526,1.687,3.847,2.419.33.187.66.366,1,.535.669.348,1.348.678,2.044.982.277.125.562.241.839.348.277.116.562.232.848.339.857.321,1.723.616,2.615.866.553.161,1.107.303,1.678.437,1.339.312,2.722.544,4.15.687.241.027.473.054.714.071,2.892.018,5.784.036,8.675.054.535-.089,1.071-.187,1.598-.294.152-.027.303-.062.455-.098.402-.08.794-.17,1.187-.268.669-.152,1.339-.321,1.999-.509.518-.143,1.035-.303,1.544-.464.134-.045.268-.089.402-.134.357-.116.714-.232,1.062-.366.205-.062.411-.143.616-.223.866-.312,1.714-.661,2.553-1.026.33-.134.652-.286.973-.437.607-.277,1.205-.571,1.785-.875.607-.303,1.205-.625,1.794-.964.054-.027.107-.054.152-.08.286-.161.571-.33.857-.5,1.339-.794,2.642-1.642,3.918-2.553.955-.696,1.892-1.41,2.82-2.151l.009-.009c.464-.375.919-.759,1.374-1.151.794-1.035,1.589-2.071,2.383-3.106,1.035-1.357,2.071-2.713,3.115-4.07.571-1.026,1.107-2.071,1.607-3.124.161-.357.321-.705.482-1.062.571-1.294,1.089-2.606,1.562-3.927.143-.393.277-.794.411-1.187.125-.357.241-.714.348-1.062.161-.491.312-.973.455-1.464.223-.75.437-1.491.634-2.249.071-.277.143-.562.214-.839.08-.286.152-.562.214-.848.143-.571.277-1.134.411-1.705v-.009c.027-2.695.054-5.382.08-8.068-.571-28.365-29.677-47.447-54.891-38.37ZM291.423,75.464c-15.28-.259-27.24-10.8-27.838-25.455-.607-14.834,10.398-28.954,27.267-28.668,14.263.232,28.427,11.407,27.454,26.954.678,13.192-10.96,27.436-26.883,27.169Z"/>
    <path class="cls-9" d="M444.732,66.905c-12.129-5.078-22.581-1.714-31.587,7.301-1.785,2.508-3.57,5.025-5.355,7.533-.678,4.347-2.267,8.542-2.187,13.022.125,1.446.25,2.892.375,4.338.17.33.339.66.518.991,1.25,2.936,2.508,5.882,3.758,8.818,1.571,2.874,4.472,4.534,6.417,7.069,9.639,6.31,19.698,7.685,30.292,2.535,1.446-.705,2.803-1.598,4.195-2.41,2.945-1.883,4.561-5.034,7.087-7.319.482-1.232.937-2.481,1.446-3.713,6.453-15.816.339-31.765-14.959-38.165ZM434.102,107.426c-7.694.08-13.897-5.998-13.986-13.709-.089-7.899,6.132-14.307,13.959-14.37,7.703-.054,14.218,6.23,14.155,13.656-.071,7.622-6.649,14.334-14.129,14.423Z"/>
    <path class="cls-9" d="M176.59,90.673c-.045-.17-.08-.339-.107-.509-.018-.116-.027-.232-.036-.357-.009-.045-.009-.08-.009-.116-.018-.134-.027-.277-.027-.42-.027-.794.036-1.607-.018-2.401-.009-.08-.009-.17-.018-.25-.045-.562-.161-1.116-.419-1.642-.062-.134-.134-.268-.223-.402-.089-.134-.187-.268-.295-.393-.08-.071-.152-.143-.223-.205-.054-.054-.098-.116-.134-.17-.018-.018-.036-.045-.054-.071-.036-.045-.062-.089-.08-.143-.054-.071-.089-.152-.116-.223-.036-.089-.071-.179-.089-.268-.027-.071-.045-.152-.054-.223-.027-.098-.036-.196-.045-.303-.009-.071-.009-.143-.009-.214-.009-.071-.009-.152-.009-.223-.134-.25-.196-.509-.17-.785-2.071-2.41-4.231-4.766-5.364-7.819-1.589-.152-2.633-1.285-3.784-2.178-9.55-7.444-21.287-8.443-31.462-2.651-9.907,5.65-15.191,17.012-13.799,28.606.509,4.284,3.151,7.613,4.007,11.647,2.035,2.115,4.07,4.222,6.096,6.337,11.746,8.881,23.643,8.158,35.665.589,2.035-2.374,4.07-4.757,6.105-7.131,3.142-5.435,5.043-11.219,4.838-17.574-.071-.17-.125-.339-.17-.509ZM147.699,107.372c-7.631-.036-13.406-6.167-13.334-14.173.062-7.97,6.194-13.986,14.173-13.923,7.515.054,13.673,6.114,13.665,13.433,0,8.354-6.275,14.691-14.504,14.664Z"/>
    <path class="cls-3" d="M492.331,125.017l1.687-3.561c1.839,2.321,1.142,3.445-1.687,3.561Z"/>
    <path class="cls-3" d="M468.268,119.555c-1.196-.535-2.08-1.383-2.544-2.624,1.874-.125,2.642.83,2.544,2.624Z"/>
    <path class="cls-3" d="M112.069,121.394c-.196.919-.732,1.553-1.633,1.865-.036-1.125.491-1.767,1.633-1.865Z"/>
    <path class="cls-3" d="M91.05,118.948l-.009.009c-.286.652-.589,1.294-.884,1.955-.179-.723-.223-1.383.375-1.749.062-.045.134-.08.205-.107.071-.036.152-.062.232-.08q.009-.009.018-.009h.009s0-.009.009,0c0,0,0-.009.009-.009h.009c.009,0,.018-.009.027-.009Z"/>
    <path class="cls-3" d="M108.829,125.098c-.107.723-.357,1.348-1.142,1.589.045-.776.303-1.392,1.142-1.589Z"/>
    <path class="cls-3" d="M94.326,117.547c-.58.107-1.16.223-1.74.33.437-.866,1.009-1.009,1.74-.33Z"/>
    <path class="cls-3" d="M113.372,119.778c-.339.375-.678.741-1.017,1.116.045-.643.384-1.009,1.017-1.116Z"/>
    <path class="cls-3" d="M98.574,119.136c-.339-.339-.687-.687-1.026-1.035.66.036,1.009.375,1.026,1.035Z"/>
    <path class="cls-3" d="M92.041,118.073c-.339.295-.669.589-1.017.884h-.009v.009h-.009v.009h-.009v.009h-.009v-.018c.009-.08.027-.152.045-.214.009-.062.036-.125.062-.179.036-.071.071-.134.116-.187.009-.018.027-.036.054-.054.054-.054.107-.098.179-.134.054-.036.125-.062.196-.08.036-.009.071-.018.107-.018.08-.018.161-.027.25-.027h.045Z"/>
    <path class="cls-3" d="M487.377,117.27c-.402.25-.812.491-1.214.741.187-.616.598-.839,1.214-.741Z"/>
    <path class="cls-3" d="M97.003,117.886c-.286-.071-.571-.143-.857-.214.411-.428.678-.286.857.214Z"/>
    <path class="cls-3" d="M465.35,116.44c-.339-.357-.678-.714-1.017-1.071.634.071.973.437,1.017,1.071Z"/>
    <path class="cls-5" d="M370.697,155.551h-.009c.161.303.339.607.527.91-.179-.303-.357-.607-.518-.91Z"/>
    <path class="cls-10" d="M196.054,475.061c-1.187-.004-2.374.004-3.561-.015-2.816-.046-5.91.616-8.38-.336-3.282-1.265-1.07-4.956-1.804-7.501-1.66-5.758-5.67-9.128-12.036-9.166-11.869-.071-23.741-.083-35.609.06-3.299.04-5.787-.819-8.341-3.1-6.537-5.84-12.619-12.119-18.798-18.311-.977-.979-1.817-1.955-1.753-3.431,2.218-.101,4.435-.298,6.651-.287,29.263.145,58.526.329,87.79.467,2.52.012,5.046-.166,7.559-.372,2.408-.197,3.86-1.601,3.97-4.01.107-2.339-1.149-3.996-3.372-4.677-1.104-.339-2.34-.337-3.517-.338-34.022-.016-68.043-.02-102.065.009-1.419.001-3.002-.523-4.212.771-4.361-4.881-8.177-10.153-11.369-15.872,58.31-.048,116.621-.096,174.932-.127,1.025,0,2.051.211,3.073.324-.518,3.476-1.034,6.951-1.549,10.427-2.961.188-5.921.377-8.882.565-21.595,1.372-37.128,17.937-37.098,39.531.007,5.339-.067,10.678-.104,16.018-4.721.079-9.442.157-14.163.234-2.124-3.124-4.812-1.421-7.366-.862ZM173.672,444.47c-3.252-.075-5.099.247-6.29,2.102-1.008,1.569-3.151,3.143-2.057,4.99,1.121,1.893,3.401.777,5.239.335,2.669-.643,5.12-.654,7.404,1.486,1.922,1.8,4.354,2.776,6.637.284,2.613-2.851,5.449-3.873,9.016-1.621,1.199.757,2.621.638,3.628-.551.932-1.101.414-2.252-.202-3.292-1.816-3.063-5.465-5.711-7.939-4.33-5.802,3.239-10.992,3.889-15.435.597Z"/>
    <path class="cls-10" d="M253.134,474.96c-8.762-.003-17.524-.006-26.286-.011-.109-5.62-.35-11.239-.303-16.855.136-16.462,12.496-28.819,28.939-29.133,3.396-.065,6.787-.359,10.181-.547.626,1.175,1.23,2.362,1.882,3.522,4.022,7.166,10.358,12.521,17.852,14.169,10.99,2.416,20.113-2.629,26.84-11.711,5.757-7.773,6.032-16.408,4.205-25.412,8.193-.267,13.951,4.101,18.895,9.97,8.058,9.565,18.278,14.119,30.825,14.095,36.941-.07,73.883.061,110.824.113-5.133,6.515-10.716,12.586-17.335,17.639-58.87-.011-117.739-.031-176.608-.003-3.266.002-6.477.66-9.599,1.706-10.987,3.683-17.046,11.803-20.312,22.459Z"/>
    <path class="cls-3" d="M286.398,91.208c.241.027.473.054.714.071v-.009c-.241-.018-.482-.045-.714-.062ZM161.961,155.926c.054.58.027,1.053-.08,1.446.107-.384.143-.857.089-1.446h-.009ZM158.364,158.996c.054-.045.116-.089.179-.152h-.009c-.062.054-.116.107-.17.152Z"/>
    <path class="cls-10" d="M378.133,475.688c-19.858-1.015-39.71-.657-59.562.224,0,0-.24.031-.24.031l-.13-.203c-.115-.304-.208-.667-.6-.223-5.468-2.302-11.026-1.776-16.607-.531-8.122.223-16.242.559-24.365.627-4.569.038-9.142-.365-13.711-.573.149-.874.171-1.788.462-2.608,3.021-8.54,9.914-12.898,20.693-12.905,53.761-.033,107.523-.029,161.284-.01,1.461,0,2.923.311,4.384.477-5.743,6.006-12.72,10.459-19.409,15.258-.924.663-2.573.413-3.886.419-8.73.041-17.461.012-26.191.072-1.567.011-3.29-.517-4.631.85-5.216-7.47-11.931-7.818-17.49-.905Z"/>
    <path class="cls-3" d="M176.369,385.596c1.332,1.442,3.073.811,4.627.812,33.72.021,67.44-.004,101.16-.02,5.49-.003,5.583.125,4.076,5.526-5.6,1.971-10.744,4.721-15.095,8.825-1.159-1.373-2.755-.878-4.171-.879-61.692-.024-123.385-.019-185.077-.017-3.053-4.216-5.66-8.696-7.927-13.379,16.143-.041,32.287-.081,48.431-.12,5.147,3.649,9.79,7.904,16.031,10.048,6.486,2.227,12.731,1.8,19.042.191,7.295-1.86,13.656-5.51,18.902-10.986Z"/>
    <path class="cls-3" d="M491.717,410.91v.12c-.01-.01-.01-.02-.02-.03.01-.03.01-.06.02-.09Z"/>
    <path class="cls-3" d="M486.317,420.16c.05-.12.14-.23.24-.33-.11.1-.19.21-.24.33Z"/>
    <path class="cls-3" d="M486.787,419.66c.07-.05.15-.09.24-.12l-.01.01c-.09.03-.16.07-.23.11Z"/>
    <polygon class="cls-3" points="487.047 419.52 487.057 419.52 487.047 419.53 487.047 419.52"/>
    <path class="cls-3" d="M492.147,413.1c-1.37,1.86-2.75,3.71-4.12,5.56-.32.28-.64.56-.95.85-.01,0-.01.01-.02.01v-.01c1.69-2.14,3.33-4.32,4.91-6.56,0,0,.01,0,.01-.01.04.05.1.11.17.16Z"/>
    <path class="cls-8" d="M500.25,399.888c-38.455-.023-76.911.005-115.366-.108-8.279-.024-15.776-2.484-21.587-8.791-1.071-1.162-2.445-2.193-2.406-4.551,8.135,0,16.229-.01,24.322.003,5.791.009,11.581.085,17.371.049,1.406-.009,3.016.572,4.126-.909,8.809,9.297,19.12,14.13,32.296,11.708,8.678-1.595,15.738-5.83,22.042-11.694,1.299,1.5,3.048.843,4.591.848,14.223.045,28.446.017,42.669.011-2.334,4.689-4.799,9.3-8.058,13.434Z"/>
    <path class="cls-3" d="M491.717,410.91v.12c-.01-.01-.01-.02-.02-.03.01-.03.01-.06.02-.09Z"/>
    <path class="cls-5" d="M250.67,230.13c.062-.089.116-.179.161-.268-.045.089-.098.179-.152.268h-.009Z"/>
    <path class="cls-11" d="M344.064,495.479c-.045-.196-.054-.419-.027-.652-.018.223-.018.446.027.652Z"/>
    <path class="cls-11" d="M349.473,496.443c-1.348.66-2.704,1.276-4.052.553.884.241,2.205.125,4.052-.553Z"/>
    <path class="cls-11" d="M348.803,488.473c.384-.17.821-.205,1.25-.259-2.428.812-4.391,2.731-5.364,4.579.875-1.74,2.508-3.588,4.115-4.32Z"/>
    <path class="cls-11" d="M351.508,495.577c.428-.205.875-.428,1.339-.678-.437.25-.866.544-1.339.678Z"/>
    <path class="cls-11" d="M359.023,491.168c-.821-.91-1.642-1.607-2.472-2.124.866.491,1.687,1.187,2.472,2.124Z"/>
    <path class="cls-5" d="M371.902,494.31c-.054.205-.116.393-.187.553-.268.562-.643.928-1.089,1.151-.732.348-1.669.303-2.606.223-.134-.018-.259-.027-.393-.054-.776-.125-1.535-.295-2.205-.384-4.418,3.231-8.524,2.633-12.379-1.009-.062.036-.125.071-.196.107-.464.25-.91.473-1.339.678h-.009c-.669.187-1.348.535-2.026.866-1.847.678-3.168.794-4.052.553-.348-.187-.696-.464-1.044-.848-.152-.17-.259-.384-.312-.634v-.036c-.045-.205-.045-.428-.027-.652.009-.089.018-.179.036-.277.009-.089.027-.179.054-.277.009-.054.027-.107.045-.161.018-.098.054-.205.089-.312.107-.33.25-.669.428-1.009.973-1.848,2.936-3.766,5.364-4.579.009.009.018.009.018,0,.152-.009.294-.027.437-.054,2.178-.295,4.097-.152,5.837.768.071.036.134.071.205.116.83.518,1.651,1.214,2.472,2.124,2.57,3.088,3.454-1.937,5.605-1.687.089-.054.187-.107.277-.161.776-.384,1.651-.518,2.535-.437.054,0,.107.009.161.018.687.116,1.375.375,2.053.696.303.143.571.295.812.473.018.009.036.018.054.036.705.562,1.232,1.285,1.464,2.124.018.089.036.187.054.277.071.553.036,1.151-.134,1.803Z"/>
    <path class="cls-11" d="M365.422,495.801c.669.089,1.428.259,2.205.384-.741-.098-1.473-.259-2.205-.384Z"/>
    <path class="cls-11" d="M364.905,489.321c.857-.446,1.696-.553,2.535-.437-.884-.08-1.758.054-2.535.437Z"/>
    <path class="cls-11" d="M371.715,494.863c-.25.58-.634.937-1.089,1.151.446-.223.821-.589,1.089-1.151Z"/>
    <path class="cls-11" d="M370.519,490.106c.785.562,1.276,1.276,1.464,2.124-.232-.839-.759-1.562-1.464-2.124Z"/>
    <path class="cls-7" d="M111.31,273.419c-1.194-.502-3.334.899-3.478-1.528-.152-2.577,2.052-1.642,3.243-1.583,1.339.066,3.759-1.152,3.706,1.614-.047,2.405-2.265,1.018-3.471,1.497Z"/>
    <path class="cls-3" d="M487.077,419.51c0,.18-.02.35-.06.52-.03.13-.07.26-.13.38-.1.25-.27.48-.49.66-.03.03-.06.06-.09.08-.07.05-.14.1-.21.14,0-.23.01-.45.05-.66.01-.07.03-.13.05-.2.03-.09.06-.18.12-.27.05-.12.14-.23.24-.33.06-.06.14-.12.23-.17.07-.05.15-.09.24-.12.01,0,.01-.01.02-.01v-.01h.01c.01,0,.01-.01.02-.01Z"/>
    <path class="cls-5" d="M510.206,275.631c.233-.379.49-.502.799-.077-.001,0-.386.188-.386.188l-.413-.111Z"/>
    <path class="cls-5" d="M72.164,175.017c-.036,1.473-.071,2.945-.107,4.418-1.312-1.508-1.473-2.981.107-4.418Z"/>
    <path class="cls-11" d="M326.374,72.055h.009c.571-1.026,1.107-2.071,1.607-3.124-.5,1.053-1.035,2.097-1.615,3.124ZM332.72,54.579v.009c2.678.196,5.337.446,7.979.75-2.642-.312-5.302-.562-7.979-.759ZM349.134,56.542c1.535.259,3.07.544,4.596.848-1.526-.312-3.061-.589-4.596-.848Z"/>
    <path class="cls-11" d="M180.794,76.705h.018q.009-.009.009-.018l-.027.018ZM177.116,79.257h.009s-.009,0,0-.009c-.009-.009-.009-.018-.009-.018v.027Z"/>
    <path class="cls-3" d="M405.979,99.098c-1.74-1.312-1.401-2.794-.375-4.338.125,1.446.25,2.892.375,4.338Z"/>
    <path class="cls-3" d="M175.447,84.184h-.009c-.08-.071-.152-.143-.223-.205-.045-.054-.098-.107-.134-.17-.018-.018-.036-.045-.054-.071-.036-.045-.062-.089-.08-.143-.054-.071-.089-.152-.116-.223-.036-.089-.071-.179-.089-.268-.027-.071-.045-.152-.054-.223-.027-.098-.036-.196-.045-.303-.009-.071-.009-.143-.009-.214-.009-.071-.009-.152-.009-.223.821.464.893,1.223.821,2.044Z"/>
    <path class="cls-5" d="M488.707,166.957c-2.008-.241-1.812-1.589-1.499-2.999.107.089.205.187.303.277.482.464.884.973,1.08,1.58.018.071.036.134.054.214.027.089.045.179.054.277.027.205.027.42.009.652Z"/>
    <path class="cls-3" d="M182.472,75.66c-.125,1.044-.83,1.142-1.66,1.044h-.018c0-.009.009-.009.009-.018.08-.17.179-.321.286-.437.062-.071.125-.125.187-.179.134-.098.277-.179.428-.241.054-.027.116-.045.17-.054.187-.062.384-.098.598-.116Z"/>
    <path class="cls-3" d="M180.821,76.687q0,.009-.009.018c-.268.839-.928,1.035-1.714.991.08-.179.187-.33.303-.455.062-.062.125-.125.187-.17l.009-.009c.107-.08.232-.152.366-.196.25-.116.536-.161.839-.179h.018Z"/>
    <path class="cls-3" d="M177.116,79.231v.027c-.143,1.017-.857,1.125-1.687,1.071.348-.696.937-1.017,1.687-1.098Z"/>
    <path class="cls-3" d="M178.116,78.481v.009l-.009.009c-.107.536-.428.803-.982.759.17-.134.33-.259.5-.393.161-.125.33-.259.491-.384Z"/>
    <path class="cls-9" d="M316.447,408.98c-2.07-3.04-4.13-6.08-6.19-9.12-4-4.01-9.05-6.13-14.26-7.95h-9.76c-5.6,1.97-10.75,4.72-15.1,8.83-2.46,2.46-3.99,5.57-5.92,8.41-.52,3.47-1.04,6.95-1.55,10.42.28,3.04.98,5.98,2,8.84.62,1.18,1.23,2.36,1.88,3.53,4.02,7.16,10.36,12.52,17.85,14.16,10.99,2.42,20.12-2.63,26.84-11.71,5.76-7.77,6.03-16.4,4.21-25.41ZM291.017,432.27c-6.61.1-13.18-6.23-13.4-12.93-.23-7.07,6.23-13.52,13.61-13.56,7.2-.04,12.67,5.29,12.84,12.51.18,7.59-5.67,13.86-13.05,13.98Z"/>
    <path class="cls-5" d="M173.672,444.47c4.443,3.292,9.634,2.641,15.435-.597,2.473-1.381,6.122,1.267,7.939,4.33.616,1.039,1.135,2.19.202,3.292-1.007,1.19-2.429,1.309-3.628.551-3.566-2.252-6.403-1.231-9.016,1.621-2.283,2.492-4.715,1.516-6.637-.284-2.284-2.14-4.736-2.128-7.404-1.486-1.838.443-4.118,1.559-5.239-.335-1.093-1.847,1.05-3.421,2.057-4.99,1.192-1.856,3.038-2.177,6.29-2.102Z"/>
    <path class="cls-6" d="M318.154,106.006c-.107,1.705-1.035,2.999-3.097,2.936-1.955-.054-3.088-.937-2.936-2.936.143-1.812,1.303-2.829,3.07-3.231,1.714.428,3.07,1.366,2.963,3.231Z"/>
    <path class="cls-5" d="M364.128,155.551c-.375,1.08-.964,1.981-2.026,2.499-1.749-2.794.535-2.329,2.026-2.499Z"/>
    <path class="cls-5" d="M393.26,162.396l-3.508.187c.009-.009.018-.018.027-.027,1.08-1.446,2.258-1.258,3.481-.161Z"/>
    <path class="cls-5" d="M406.764,145.367c-1.223.179-1.821-.393-1.928-1.571.884.241,1.544.732,1.928,1.571Z"/>
    <path class="cls-5" d="M412.833,150.026c-1.026-.036-1.642-.553-1.803-1.58.928.152,1.491.723,1.803,1.58Z"/>
    <path class="cls-5" d="M419.117,155.363c-.776-.018-1.437-.196-1.598-1.107.75.054,1.303.393,1.598,1.107Z"/>
    <path class="cls-5" d="M408.371,146.447c-.75-.027-1.401-.205-1.607-1.071.732.062,1.321.339,1.607,1.071Z"/>
    <path class="cls-5" d="M403.863,142.904c-.75-.045-1.374-.277-1.607-1.089.714.098,1.348.321,1.607,1.089Z"/>
    <path class="cls-5" d="M400.391,140.172c-.768,0-1.419-.196-1.66-1.035.732.054,1.339.321,1.66,1.035Z"/>
    <path class="cls-6" d="M269.895,102.704c-.598,2.222-1.526,3.722-3.99,3.579-2.321-.143-3.026-1.491-2.901-3.561.134-2.205,1.696-3.24,3.517-3.276,2.008-.045,3.026,1.517,3.374,3.258Z"/>
    <path class="cls-5" d="M161.881,157.371c-.107.357-.277.634-.5.848-.054.054-.116.107-.179.152-.098.08-.214.143-.339.196-.089.054-.196.089-.295.125-.161.054-.33.089-.509.116-.455.071-.964.071-1.508.036h-.018c.776-1.401,1.919-2.374,3.427-2.919h.009c.054.589.018,1.062-.089,1.446Z"/>
    <path class="cls-5" d="M197.859,159.826c-.303-.071-.607-.152-.91-.223.428-.437.714-.286.91.223Z"/>
    <path class="cls-3" d="M486.447,408.74c-32.83-.02-65.67.13-98.51-.05-15.7-.08-29.02-5.31-37.45-19.58-.02-3.39-2.62-2.65-4.51-2.66-14.83-.06-29.67.15-44.49-.16-4.52-.1-6.4,1.06-5.49,5.62,5.21,1.82,10.26,3.94,14.26,7.95,4.9-2.04,9.53.78,14.32.8.22.12.46.17.71.18,1.49,0,3.38-.84,3.71,1.7,5.78,3.23,10.48,7.74,14.8,12.66,5.13,5.82,11.64,8.37,19.22,8.91,8.9.64,17.78.22,26.68.15,29.84-.22,59.69-.09,89.53-.06,1.4,0,2.95-.55,4.17.66.01,0,.01-.01.01-.01.63-.87,1.26-1.75,1.87-2.65h-.08c.05-.05.1-.1.15-.15.09-.09.19-.19.29-.29.15-.15.31-.31.46-.47,0-.23.01-.45.05-.66.01-.07.03-.14.05-.2.03-.09.06-.18.12-.27.05-.12.13-.23.24-.33.06-.06.14-.12.23-.17.07-.05.15-.09.24-.12.01,0,.01-.01.02-.01v-.01h.01v-.01c1.69-2.14,3.33-4.32,4.91-6.56,0,0,.01,0,.01-.01.47-.64.91-1.29,1.37-1.95.01-.02.02-.04.04-.06.35-.62.7-1.24,1.05-1.86-2.66-.11-5.32-.33-7.99-.33ZM491.717,410.91v.12c-.01-.01-.01-.02-.02-.03.01-.03.01-.06.02-.09Z"/>
    <path class="cls-3" d="M483.407,424.85c.63-.87,1.26-1.75,1.87-2.65-.28,1.12-.78,2.09-1.83,2.7-.02-.02-.03-.03-.05-.04.01,0,.01-.01.01-.01Z"/>
    <path class="cls-3" d="M493.347,410.99c-.4.71-.8,1.41-1.2,2.11-.07-.05-.13-.11-.17-.16.47-.64.91-1.29,1.37-1.95Z"/>
    <path class="cls-5" d="M429.72,151.9c-2.82-1.214-5.132-3.079-7.078-5.436,3.365.5,6.266,1.607,7.078,5.436Z"/>
    <path class="cls-3" d="M353.882,92.101c-1.607-.321-2.749-1.258-3.534-2.669h.009c1.999-.196,3.999-.393,3.525,2.669Z"/>
    <path class="cls-5" d="M420.804,144.814c-1.553-.428-2.713-1.375-3.534-2.749,2.044-.196,3.606.232,3.534,2.749Z"/>
    <path class="cls-3" d="M357.461,94.761v.036c-.143-.018-.286-.036-.419-.062-.08-.018-.161-.036-.232-.054-.187-.054-.366-.116-.527-.196-.116-.054-.223-.116-.33-.187-.045-.027-.08-.054-.125-.089-.089-.062-.179-.134-.259-.214-.08-.071-.152-.143-.214-.232-.009,0-.009-.009-.009-.018-.027-.027-.054-.062-.071-.089-.045-.045-.08-.098-.107-.152-.054-.08-.107-.17-.161-.268-.054-.098-.107-.196-.143-.303l-.009-.009c1.366-.071,2.704-.116,2.606,1.839Z"/>
    <path class="cls-5" d="M434.129,155.595c-1.125-.312-2.062-.866-2.535-2.008,1.401-.027,2.74,0,2.535,2.008Z"/>
    <path class="cls-5" d="M417.251,142.065c-.964-.125-1.615-.625-1.892-1.58,1.366-.348,1.919.268,1.892,1.58Z"/>
    <path class="cls-3" d="M350.356,89.432h-.009c-.473-.009-.875-.125-1.169-.393-.062-.054-.116-.116-.17-.179-.107-.134-.187-.295-.259-.482.759,0,1.375.241,1.607,1.053Z"/>
    <path class="cls-3" d="M346.786,86.737c-.794.054-1.312-.312-1.58-1.053.75.018,1.357.25,1.58,1.053Z"/>
    <path class="cls-5" d="M457.46,175.936c-.741-.027-1.366-.259-1.633-1.026.741.027,1.374.232,1.633,1.026Z"/>
    <path class="cls-5" d="M411.834,137.682c-.732-.054-1.321-.321-1.651-1.035.776-.018,1.437.152,1.651,1.035Z"/>
    <path class="cls-5" d="M408.281,135.058c-.357-.295-.705-.598-1.062-.901.598.018.955.312,1.062.901Z"/>
    <path class="cls-5" d="M415.332,140.36c-.339-.268-.669-.536-1-.812.58-.036.928.214,1,.812Z"/>
    <path class="cls-3" d="M235.336,86.656c-.768,1.419-1.901,2.383-3.499,2.74.027-2.365,1.526-2.856,3.499-2.74Z"/>
    <path class="cls-3" d="M242.503,81.319c-.527,1.044-1.366,1.696-2.49,1.964-.277-2.044,1.107-1.99,2.481-1.964h.009Z"/>
    <path class="cls-3" d="M225.795,93.939c-.161.241-.33.473-.518.678-.089.098-.187.196-.286.286-.107.089-.214.179-.321.259-.089.062-.179.125-.277.179-.107.062-.223.125-.339.178-.098.045-.196.089-.295.125-.071.027-.143.054-.214.08-.125.036-.259.071-.402.098-.366-2.383,1.241-1.99,2.651-1.883Z"/>
    <path class="cls-3" d="M230.222,90.548c-.33.928-1.026,1.401-1.972,1.571.009-1.339.571-1.981,1.972-1.571Z"/>
    <path class="cls-3" d="M231.828,89.396c-.303.687-.857,1.026-1.589,1.098.054-1.062.759-1.16,1.589-1.098Z"/>
    <path class="cls-3" d="M238.951,84.015c0,.009-.009.009-.009.009-.17.366-.402.625-.705.803-.08.045-.161.089-.241.116-.107.054-.223.089-.348.116-.107.027-.214.045-.33.054.107-1.017.812-1.142,1.633-1.098Z"/>
    <path class="cls-3" d="M237.318,85.077c-.143.116-.286.223-.428.339-.187.152-.384.295-.58.446.125-.535.446-.812,1.009-.785Z"/>
    <path class="cls-9" d="M318.202,475.741c-.215-.037-.416-.111-.601-.223.393-.443.486-.081.601.223Z"/>
    <path class="cls-5" d="M328.997,402.54c-1.42-.17-2.67-.71-3.71-1.7,1.49,0,3.38-.84,3.71,1.7Z"/>
    <path class="cls-6" d="M141.433,135.094c.205,2.097-1.526,2.91-3.168,3.329-2.633-.411-3.784-1.821-3.758-4.24.027-1.99,1.08-2.883,3.026-2.945,2.678-.089,3.704,1.749,3.9,3.856Z"/>
    <path class="cls-6" d="M445.705,135.763c-.741,1.66-1.794,3.276-3.641,3.338-2.089.071-3.704-1.571-3.784-3.472-.08-1.696,1.651-2.544,3.445-2.615,1.999-.08,3.32.785,3.981,2.749Z"/>
    <path class="cls-6" d="M360.29,74.741c-.196,2.178-1.33,3.713-3.534,3.749-2.66.036-4.043-1.973-4.115-4.284-.071-2.276,1.401-3.847,3.981-3.606,2.446.232,3.561,1.758,3.668,4.141Z"/>
    <path class="cls-6" d="M396.866,98.224c-.027,1.473-.054,2.954-.08,4.427l-.009.018c-5.177,1.874-5.998,1.294-6.337-4.525.08-.25.134-.509.17-.776.303-.286.607-.571.91-.857,2.106-.455,3.829.303,5.346,1.714Z"/>
    <path class="cls-3" d="M396.786,102.651c.027-1.473.054-2.954.08-4.427.893,1.491,3.579,3.017-.08,4.427Z"/>
    <path class="cls-6" d="M224.653,78.543c-2.044.062-3.383-1.16-3.552-3.222-.196-2.276,1.517-2.99,3.392-3.606,1.803.464,3.293,1.607,3.49,3.481.223,2.097-1.33,3.284-3.329,3.347Z"/>
    <path class="cls-3" d="M192.432,101.847c-1.508-.384-3.017-.776-4.525-1.16v-.009c.25-.286.482-.527.696-.732.339-.312.643-.544.937-.705,1.375-.714,2.294.294,2.892,2.606Z"/>
    <path class="cls-11" d="M196.467,111.951c-.205.098-.535.393-.875.402-.634,0-1.062-.42-.759-1.044.116-.241.705-.384,1.062-.357.393.027.812.259.571,1Z"/>
  </g>
  <g id="Layer_6" data-name="Layer 6">
    <path class="cls-6" d="M507.352,184.611c-2.722,2.811-5.9,4.302-9.925,3.856-6.756-.75-10.559-7.586-7.899-14.753.857-2.303,1.169-4.222-.643-6.078-.018-.241-.071-.464-.179-.678.018-.232.018-.446-.009-.652-.009-.098-.027-.187-.054-.277-.018-.08-.036-.143-.054-.214-.196-.607-.598-1.116-1.08-1.58-.098-.098-.196-.196-.303-.286-.473-2.374-1.776-4.364-2.999-6.364-9.3-15.191-18.85-30.194-33.05-41.485,2.945-1.883,4.561-5.034,7.087-7.319,2.026,2.196,4.061,4.391,6.087,6.587.339.357.678.714,1.017,1.071.054.223.179.384.375.491.464,1.241,1.348,2.088,2.544,2.624l.045.054c6.944,8.434,13.799,16.922,19.529,26.276,3.57,5.819,6.435,11.987,9.666,17.967.857,1.58,1.651,3.195,3.543,3.749,7.72,2.249,10.273,9.443,6.301,17.012Z"/>
    <path class="cls-6" d="M130.152,115.298c-15.182,14.504-26.972,31.444-36.451,50.133-2.053,4.052-2.794,7.506-.393,11.407-1.25,8.327-4.909,12.022-11.576,11.514-5.025-.393-7.506-3.963-9.497-8.024-.062-.295-.125-.598-.178-.893.036-1.473.071-2.945.107-4.418,2.017-3.847,4.882-6.614,9.3-7.488,1.232-.241,2.062-.964,2.606-2.151,5.775-12.656,13.201-24.339,21.162-35.701l-.045-.062c.277-.321.544-.643.821-.964.277-.321.553-.643.839-.973.277-.33.553-.66.839-.991.785-.241,1.035-.866,1.142-1.589.536-.616,1.071-1.223,1.607-1.839.901-.312,1.437-.946,1.633-1.865.179-.116.277-.286.286-.5.339-.375.678-.741,1.017-1.116.25-.25.491-.5.741-.759.294-.33.589-.66.901-1,.286-.321.58-.634.875-.946l-.027.018c.295-.303.589-.616.875-.919.286-.295.58-.607.875-.91.33-.294.66-.589.991-.884.268-.277.536-.553.803-.83.321-.321.652-.643.973-.964.268-.277.536-.553.803-.83.339-.312.669-.625,1.009-.946.821-.411,1.58-.884,1.865-1.848,2.035,2.115,4.07,4.222,6.096,6.337Z"/>
    <path class="cls-6" d="M413.146,74.206c-1.785,2.508-3.57,5.025-5.355,7.533-1.571-1.339-3.026-2.838-4.721-3.99-.661-.455-1.33-.893-1.999-1.33-.58-.384-1.16-.759-1.749-1.125-.857-.544-1.714-1.071-2.579-1.589-.544-.321-1.089-.643-1.642-.964-.062-.036-.125-.071-.187-.107-.652-.384-1.312-.75-1.973-1.116-.018-.009-.045-.018-.062-.036-.652-.357-1.294-.705-1.955-1.053-.045-.027-.098-.054-.152-.08-.66-.348-1.321-.687-1.981-1.017-.696-.357-1.392-.696-2.097-1.035-.634-.312-1.267-.607-1.91-.91-1.473-.678-2.963-1.33-4.454-1.955-.723-.303-1.437-.598-2.151-.875-.58-.241-1.16-.464-1.749-.678-.857-.33-1.723-.652-2.588-.955-1.446-.527-2.91-1.017-4.382-1.482-.732-.241-1.473-.473-2.213-.687-.714-.223-1.428-.428-2.151-.634-.027,0-.045-.009-.071-.018-1.482-.419-2.981-.821-4.481-1.187-.75-.187-1.508-.375-2.258-.544-.723-.17-1.437-.33-2.16-.482-.794-.179-1.589-.339-2.392-.5-1.526-.303-3.061-.589-4.596-.848-1.348-.232-2.695-.437-4.052-.634-.589-.08-1.169-.161-1.749-.241-.875-.116-1.758-.223-2.633-.33-2.642-.303-5.302-.553-7.979-.75v-.009c.027-2.695.054-5.382.08-8.068,11.389-.607,22.358,1.865,33.166,4.936,15.566,4.436,30.426,10.585,43.761,19.984,1.196.848,2.276,1.848,3.418,2.776Z"/>
    <path class="cls-6" d="M180.794,76.705c0-.009.009-.009.009-.018h.018l-.027.018Z"/>
    <path class="cls-6" d="M249.572,54.284c-3.24.366-6.498.652-9.72,1.116-20.028,2.865-38.923,9.059-56.328,19.511-.348.259-.696.527-1.044.785l-.009-.036c-.214.018-.411.054-.598.116-.062.009-.116.027-.17.054-.152.062-.295.143-.428.241-.062.054-.134.116-.187.179-.107.116-.205.268-.286.437-.303.018-.589.062-.839.179-.134.045-.259.116-.366.196l-.009.009c-.062.045-.125.107-.187.17-.116.125-.223.277-.303.455-.33.268-.652.527-.982.794v-.009c-.161.125-.33.259-.491.384-.17.125-.33.25-.5.384-.009.009,0,.009,0,.009h-.009v-.027c-.75.08-1.339.402-1.687,1.098-.321.339-.643.678-.973,1.026-2.071-2.41-4.231-4.766-5.364-7.819,15.012-10.148,31.399-17.315,48.741-22.402,10.3-3.017,20.85-4.561,31.542-5.293.062,2.82.125,5.632.196,8.443Z"/>
    <path class="cls-6" d="M494.018,121.456l-1.687,3.561c-.366.205-.732.402-1.098.598-6.016.143-7.247-1.696-5.061-7.56l-.009-.045c.402-.25.812-.491,1.214-.741,3.552-.732,5.391,1.258,6.64,4.186Z"/>
    <polygon class="cls-6" points="91.005 118.966 91.014 118.966 91.005 118.975 91.005 118.966"/>
    <path class="cls-6" d="M95.566,125.776c-3.16.544-4.927-1.16-5.462-4.231.116-.205.134-.411.054-.634.295-.66.598-1.303.884-1.955-.009,0-.018.009-.027.009v-.009h.009c.348-.295.678-.589,1.017-.884.214.027.393-.036.544-.196.58-.107,1.16-.223,1.74-.33.607.036,1.214.08,1.821.125.286.071.571.143.857.214.143.161.33.232.544.214.339.348.687.696,1.026,1.035-.009.223.071.402.241.544.268,2.758.259,5.507-3.249,6.096Z"/>
    <path class="cls-6" d="M500.247,399.89c-1.93,3.06-3.87,6.12-5.81,9.18-2.66-.11-5.32-.33-7.99-.33-32.83-.02-65.67.13-98.51-.05-15.7-.08-29.02-5.31-37.45-19.58-.02-3.39-2.62-2.65-4.51-2.66-14.83-.06-29.67.15-44.49-.16-4.52-.1-6.4,1.06-5.49,5.62h-9.76c1.5-5.4,1.41-5.52-4.08-5.52-33.72.01-67.44.04-101.16.02-1.55,0-3.3.63-4.63-.81.43-.91.89-1.72,1.4-2.46.31-.44.62-.85.95-1.23.22-.25.45-.49.68-.72.25-.25.5-.47.76-.68.23-.19.47-.37.71-.54.53-.36,1.09-.68,1.67-.95.37-.18.76-.33,1.16-.47.5-.17,1.01-.32,1.54-.43.17-.04.33-.07.5-.1,1.16-.22,2.4-.32,3.72-.32.62,0,1.26.03,1.92.07,1.69.11,3.39.18,5.08.22,3.18.08,6.37.07,9.56.03,5.67-.07,11.35-.23,17.01-.11,1.58.04,2.76-.13,3.58-.58.02,0,.03-.01.05-.03,1.18-.65,1.62-1.88,1.46-3.87v-.04c-.02-.25-.05-.51-.09-.78-.17-1.23-.23-2.49-.21-3.75-.01-.02-.01-.05,0-.07,0-.96.05-1.91.1-2.86.16-2.88-.1-5.27-1.98-7.29-.13-.15-.27-.29-.42-.42-.15-.15-.3-.28-.47-.41-.33-.28-.7-.54-1.11-.8-.28-.18-.54-.37-.78-.57-.12-.1-.23-.2-.34-.31-1.44-1.38-2.11-3.26-2.1-5.43,0-.23.01-.47.03-.71,0-.08,0-.16.01-.24.06-.76.2-1.54.42-2.35.06-.25.13-.51.21-.76,0-.01,0-.03.02-.04.06-.21.13-.42.21-.63.3-.88.68-1.78,1.14-2.69.08-.15.16-.3.26-.45.238-.417.523-.795.828-1.153.018-.022.034-.045.052-.067.13-.16.28-.32.43-.47.28-.28.58-.53.89-.76.17-.12.34-.24.52-.36,1.36-.85,2.97-1.36,4.68-1.49.02,0,.05-.01.07,0,.86-.07,1.75-.04,2.64.08,3.16.44,5.28,1.84,6.74,3.82,1.12,1.52,1.83,3.39,2.32,5.43.01.02.01.05.02.07.02.1.04.19.06.28.11.53.17,1.04.19,1.54.07,1.61-.3,3.09-1.02,4.42-.03.04-.05.08-.08.12-.85,1.52-2.18,2.83-3.84,3.89-.14.09-.28.19-.41.28-1.43,1.04-1.95,2.21-1.88,4.04.06,1.68.11,3.36.12,5.04.03,2.18-.01,4.37-.13,6.55-.01.17-.02.34-.02.49-.01,1.84.56,2.76,2.08,3.05.05.02.11.03.17.04.35.05.76.08,1.21.08,12.19.02,24.37.26,36.55.28h.01c2.05,0,4.43.47,6.56.55,1.84.07,3.51-.17,4.61-1.27,1.18-1.19,1.34-3.02,1.23-5.04-.13-2.02-.53-4.21-.5-6.12.08-5.47.12-10.94.12-16.4.01-3.6-.01-7.2-.04-10.79-.01-1,.05-1.83.28-2.48.33-.98,1.04-1.55,2.47-1.67.02-.01.03-.01.05-.01.32-.03.68-.04,1.08-.02.7.03,1.32.1,1.84.23.03.01.07.02.1.03.008.003.015.007.022.01,1.075.281,1.783.817,2.148,1.74.02.01.02.03.02.04.25.61.36,1.4.34,2.39v.06c-.05,2.88-.08,5.76-.09,8.64-.01.61-.01,1.22-.01,1.83-.03,3.74-.04,7.47-.06,11.21-.02,2.74-.04,5.48-.08,8.23-.03,1.6-.06,3.2-.1,4.8-.02.72.02,1.32.12,1.83.06.28.13.53.22.75.05.11.1.22.16.32.12.19.26.36.42.51.09.09.21.17.33.24.14.09.31.17.48.23.65.24,1.5.32,2.58.3,14.86-.23,29.73-.32,44.59-.21h.11c.69,0,1.27-.05,1.75-.17.02,0,.04-.01.06-.02,1.26-.31,1.81-1.07,1.9-2.39.01-.02.01-.04.01-.06.02-.42,0-.9-.05-1.44-.11-1.09-.12-2.19-.1-3.29.01-1.13.06-2.26.05-3.39-.01-1.22.02-2.41-.05-3.55,0-.1-.01-.2-.02-.3-.04-.59-.12-1.17-.26-1.74-.06-.28-.14-.56-.24-.84-.15-.47-.36-.93-.63-1.38-.15-.27-.33-.54-.54-.8-.12-.17-.26-.34-.41-.5,0-.01-.01-.01-.02-.02-.08-.09-.16-.18-.25-.26-.16-.18-.33-.34-.51-.5-.01-.01-.02-.01-.02-.01-.29-.26-.6-.51-.94-.75h-.01c-.56-.41-1.05-.87-1.47-1.38-.72-.89-1.22-1.91-1.51-3-.03-.11-.06-.22-.08-.33-.13-.52-.2-1.06-.23-1.6-.01-.13-.02-.27-.02-.41v-.08c-.01-1.31.23-2.65.7-3.9.14-.35.29-.7.45-1.04.5-1.01,1.16-1.95,1.96-2.74.13-.14.26-.27.4-.39.02-.02.05-.04.07-.06,2.59-2.28,5.5-3.3,8.3-3.08,2.69.2,5.28,1.54,7.38,3.99,1.629,1.896,2.541,4.109,2.729,6.311,0,.003.001.006.001.009.01.11.02.22.03.32v.04c.01.17.01.36.01.54-.02,2.36-.9,4.67-2.7,6.5-.42.43-.89.83-1.41,1.2-3.1,2.21-3.71,4.67-3.37,7.91.29,2.84-.74,6.26-.4,8.95.05.38.12.75.24,1.1v.01c.22.71.59,1.33,1.18,1.86h.01c2.62,2.36,7.68.63,11.67.7,3.33.06,6.66.12,10,.17,5.58.08,11.16.11,16.74-.05,1.84-.06,3.52.04,5.01.46.01,0,.02,0,.02.01,1.91.55,3.49,1.64,4.67,3.67.02.01.03.02.03.03.16.27.31.56.46.87.43.91,1.26,1.63,1.9,2.44-1.11,1.48-2.72.9-4.12.91-5.79.04-11.58-.04-17.37-.05-8.1-.01-16.19,0-24.33,0-.03,2.36,1.34,3.39,2.41,4.55,5.81,6.31,13.31,8.77,21.59,8.79,38.45.11,76.91.09,115.36.11Z"/>
    <path class="cls-6" d="M515.394,275.489c-1.464.018-2.927.045-4.391.062-.303-.419-.562-.303-.794.08-.919.045-1.839.089-2.758.134-4.257-28.731-18.788-52.311-36.951-74.142-5.15-6.194-11.05-11.54-17.012-16.869-2.454-2.187-4.757-3.561-8.649-2.785-7.72,1.553-13.236-3.347-12.049-10.666.643-3.954-.625-5.989-3.374-8.033-1.785-1.321-3.311-2.99-5.471-3.74l-.187.045c-.33-.241-.669-.473-1-.705q-.009-.009-.018-.009c-.303-.286-.598-.571-.901-.857-.286-.339-.562-.678-.839-1.017-.634-.544-1.258-1.089-1.883-1.624-.295-.714-.848-1.053-1.598-1.107l-.018.018c-.303-.286-.598-.571-.901-.848l-.901-.901c-.312-.268-.634-.535-.955-.803q-.009-.009-.018-.018c-.312-.277-.625-.553-.937-.83-.321-.286-.634-.571-.955-.848-.312-.857-.875-1.428-1.803-1.58-.884-.669-1.767-1.33-2.66-1.999-.286-.732-.875-1.009-1.607-1.071v-.009c-.384-.839-1.044-1.33-1.928-1.571-.321-.295-.652-.589-.973-.893-.259-.768-.893-.991-1.607-1.089-.286-.277-.571-.544-.857-.812-.33-.277-.661-.544-.991-.821l-.018-.009c-.321-.714-.928-.982-1.66-1.035v.018c-.303-.303-.616-.607-.919-.91-14.048-12.129-28.829-23.34-43.573-34.585-9.211-7.015-18.457-13.995-27.713-20.948-1.767-1.321-3.401-2.91-5.641-3.472v-.009c.794-1.035,1.589-2.071,2.383-3.106,1.035-1.357,2.071-2.713,3.106-4.07h.009c6.283,4.543,12.549,9.086,18.823,13.629.268.741.785,1.107,1.58,1.053l.009-.009c.312.268.634.527.946.794l.027.027c.303.259.598.518.901.776l.08.054c.071.187.152.348.259.482.054.071.107.134.17.179.294.268.696.384,1.169.393.785,1.41,1.928,2.347,3.534,2.669l.036-.018c.312.277.625.553.937.839l.009.009c.036.107.089.205.143.303.054.098.107.187.161.268.027.054.062.107.107.152.018.027.045.062.071.089,0,.009,0,.018.009.018.062.089.134.161.214.232.08.08.17.152.259.214.045.036.08.062.125.089.107.071.214.134.33.187.161.08.339.143.527.196.071.018.152.036.232.054.134.027.277.045.419.062v-.036c.295.268.58.535.875.803.027.018.045.045.071.062l.009.009c10.514,8.301,21.019,16.592,31.533,24.884,1.116.875,2.454,1.446,3.659.437,4.052-3.383,8.97-5.668,12.433-9.8l.116-.125c1.624-.205,2.347-2.151,4.097-2.124,1.571,2.874,4.472,4.534,6.417,7.069-4.15,2.82-8.336,5.596-12.442,8.479-5.614,3.936-5.587,3.972.455,7.819.33.286.669.562,1.009.848.509.348,1.017.687,1.526,1.035.357.303.705.607,1.062.901.303.25.616.491.919.741.321.277.652.562.973.839l.009.009c.33.714.919.982,1.651,1.035h.027c.312.268.634.527.946.794v.009c.321.277.634.562.955.848.17.134.357.205.571.214.33.277.66.544,1,.812l.027.125c.277.955.928,1.455,1.892,1.58h.018c.821,1.374,1.981,2.321,3.534,2.749.616.553,1.223,1.107,1.839,1.651,1.946,2.356,4.257,4.222,7.078,5.436l.018-.027c.294.321.589.643.893.973.321.25.643.491.964.741.473,1.142,1.41,1.696,2.535,2.008,2.678,2.41,4.579,5.801,8.898,5.953,5.677.205,8.872,3.043,9.871,8.818.357,2.088.973,3.65,2.928,4.543.268.768.893,1,1.633,1.026-.009.009-.018.009-.027.009,5.882,6.435,12.594,12.013,18.475,18.484,19.841,21.831,34.068,46.438,39.334,75.758.312,1.723.116,3.534.152,5.302Z"/>
    <path class="cls-6" d="M261.867,288.919c-.367-15.467,11.643-29.965,27.989-30.046,17.848-.088,31.045,12.136,31.157,29.004.115,17.335-12.42,30.781-28.871,30.973-17.204.2-30.073-12.523-30.274-29.931Z"/>
    <path class="cls-6" d="M261.443,77.785c-8.265,6.239-16.672,12.299-24.741,18.779-11.166,8.952-22.465,17.752-33.639,26.696-13.656,10.933-27.445,21.715-41.092,32.667h-.009c-1.508.544-2.651,1.517-3.427,2.919-.062.062-.116.107-.17.152-.268.232-.527.455-.785.669h-.009c-.303.286-.607.571-.901.857l-.125-.036h-.009c-1.071.785-2.133,1.571-3.204,2.347-1.071.785-2.142,1.571-3.213,2.356-1.553,1.125-1.633,2.633-1.339,4.373,1.392,8.318-3.659,13.754-11.853,12.326-2.704-.464-4.498.08-6.399,1.758-26.651,23.563-46.367,51.445-54.034,86.798-.678,3.151-1.856,5.07-5.293,4.918-1.446,0-2.892.009-4.338.018-.062-8.461,2.999-16.173,5.837-23.902,9.068-24.696,23.027-46.278,41.601-64.905.196-.196.357-.446.491-.714.071-.125.134-.259.205-.393.062-.134.134-.268.205-.393h.009c3.32-2.731,6.524-5.569,9.978-8.104,2.401-1.767,3.847-3.615,4.177-6.81.544-5.266,4.195-8.318,9.595-8.658,1.705-.107,3.186-.428,4.481-1.562,12.013-10.568,24.67-20.332,37.361-30.06,1.839-1.41,1.723-2.472-.071-3.677-5.016-3.383-9.496-7.533-14.914-10.318,2.035-2.374,4.07-4.757,6.105-7.131,5.141,3.972,10.353,7.854,15.396,11.951,2.133,1.732,3.65,1.678,5.721-.125,3.561-3.115,7.479-5.801,11.085-8.854.785-.66,1.58-1.321,2.383-1.964.794-.652,1.607-1.294,2.41-1.928.812-.643,1.624-1.276,2.437-1.91.187-.152.375-.303.571-.455,1.026-.803,2.044-1.607,3.061-2.419.803-.643,1.607-1.294,2.392-1.964.393-.33.785-.669,1.169-1,.785-.669,1.553-1.357,2.312-2.062.75-.696,1.491-1.419,2.222-2.151l.018-.018c.009-.009.045-.036.045-.036.143-.027.277-.062.402-.098.071-.027.143-.054.214-.08.098-.036.196-.08.295-.125.116-.054.232-.116.339-.178.098-.054.187-.116.277-.179.107-.08.214-.161.321-.259.098-.089.196-.187.286-.286.187-.196.366-.428.527-.678.25-.027.428-.143.58-.33.295-.241.598-.491.893-.732.33-.25.652-.5.973-.759.946-.17,1.642-.643,1.972-1.571l.018-.054c.732-.071,1.285-.411,1.589-1.098h.009c1.598-.357,2.731-1.321,3.499-2.74l.009-.009c.321-.259.652-.527.964-.785.196-.152.393-.294.58-.446.152-.116.294-.223.428-.33v.027c.116-.009.223-.027.33-.054.125-.027.241-.062.348-.116.08-.027.161-.071.241-.116.303-.179.535-.437.705-.803,0,0,.009,0,.009-.009.348-.25.678-.5,1.026-.759l.036.027c1.125-.268,1.964-.919,2.49-1.964.348-.286.687-.562,1.026-.839,4.123-3.115,8.247-6.221,12.362-9.336,1.856,2.214,3.704,4.427,5.552,6.64Z"/>
    <path class="cls-6" d="M449.74,459.994c-1.461-.166-2.922-.476-4.384-.477-53.761-.019-107.523-.023-161.284.01-10.779.007-17.672,4.365-20.693,12.905-.29.82-.313,1.735-.462,2.608-1.849,4.062-1.472,8.385-1.446,12.651.05,8.016.215,16.031.254,24.046.008,1.574.752,4.396-2.09,3.643-2.347-.621-6.616,1.026-6.6-3.912.036-10.837.044-21.674.065-32.511.003-1.334.021-2.668.032-4,3.266-10.654,9.326-18.774,20.312-22.457,3.122-1.046,6.333-1.704,9.599-1.706,58.869-.028,117.739-.008,176.608.003-3.188,3.191-5.972,6.817-9.912,9.196Z"/>
    <path class="cls-6" d="M81.889,399.843c61.692-.002,123.385-.008,185.077.017,1.416,0,3.013-.495,4.171.879-2.457,2.462-3.991,5.574-5.919,8.408-1.025-.113-2.051-.324-3.076-.324-58.311.031-116.622.08-174.932.127-1.773-3.035-3.547-6.072-5.32-9.108Z"/>
    <path class="cls-6" d="M433.109,382.109c-12.321-.102-22.201-10.211-22.059-22.571.142-12.466,9.992-22.335,22.248-22.292,12.929.045,22.872,9.762,22.849,22.33-.023,12.972-9.91,22.642-23.038,22.533Z"/>
    <path class="cls-6" d="M148.224,382.078c-12.006-.092-21.745-10.147-21.709-22.412.038-12.684,9.967-22.434,22.726-22.313,12.015.113,22.403,10.269,22.454,21.952.055,12.771-10.357,22.874-23.47,22.774Z"/>
    <path class="cls-6" d="M483.447,424.9c-.41.53-.83,1.06-1.24,1.59-.01.02-.03.03-.04.05-1.61,2.06-3.22,4.12-4.83,6.18-.03.03-.06.07-.08.1-.09.11-.18.23-.27.34h-.02c-36.93-.05-73.87-.18-110.8-.11-12.55.02-22.77-4.53-30.83-14.1-4.94-5.87-10.7-10.24-18.89-9.97-2.07-3.04-4.13-6.08-6.19-9.12,4.9-2.04,9.53.78,14.32.8.22.12.46.17.71.18,1.04.99,2.29,1.53,3.71,1.7,5.78,3.23,10.48,7.74,14.8,12.66,5.13,5.82,11.64,8.37,19.22,8.91,8.9.64,17.78.22,26.68.15,29.84-.22,59.69-.09,89.53-.06,1.4,0,2.95-.55,4.17.66.02.01.03.02.05.04Z"/>
    <path class="cls-6" d="M98.578,424.823c1.21-1.294,2.793-.77,4.212-.771,34.022-.03,68.043-.026,102.065-.009,1.176,0,2.413-.001,3.517.338,2.222.682,3.478,2.338,3.372,4.677-.11,2.409-1.561,3.813-3.97,4.01-2.514.206-5.04.384-7.559.372-29.263-.138-58.526-.323-87.79-.467-2.216-.011-4.433.187-6.651.287-3.024-2.279-4.907-5.53-7.195-8.436Z"/>
    <path class="cls-6" d="M265.665,428.413c-3.394.188-6.785.482-10.181.547-16.443.314-28.803,12.671-28.939,29.133-.046,5.617.194,11.236.303,16.855-.033,9.774.025,19.549-.2,29.317-.032,1.412,1.63,4.795-1.732,4.154-2.578-.492-7.016.492-6.972-4.744.072-8.443-.135-16.888-.234-25.332-.01-.886-.084-1.772-.128-2.657.037-5.338.112-10.678.104-16.017-.03-21.594,15.503-38.159,37.098-39.531,2.961-.188,5.921-.377,8.882-.565.282,3.033.985,5.971,1.998,8.838Z"/>
    <path class="cls-6" d="M295.293,189.396c0,16.633-.078,33.266.068,49.897.028,3.176-.6,4.401-4.105,4.421-3.444.02-4.116-1.052-4.099-4.279.166-32.967.163-65.935.231-98.903.005-2.306-.533-4.908,3.276-4.998,3.26-.077,4.732.639,4.683,4.414-.212,16.48-.091,32.964-.091,49.447.012,0,.024,0,.036,0Z"/>
    <path class="cls-6" d="M318.202,475.741l.13.203s.239-.032.24-.031c8.82,5.098,13.789,12.325,13.101,22.928-.278,4.29-.011,8.614-.014,12.922-.004,5.639-4.7,2.193-6.985,3.46-1.246.691-1.558.189-1.59-3.171-.051-5.497.036-10.996-.101-16.49-.186-7.42-6.53-13.604-13.733-13.557-6.988.046-13.108,6.136-13.315,13.51-.166,5.938-.214,11.89.011,17.824.111,2.931-1.035,3.67-3.614,3.324-2.071-.278-4.932,1.151-4.824-3.021.164-6.382-.46-12.804.007-19.154.657-8.948,5.279-15.564,13.481-19.502,5.581-1.244,11.139-1.77,16.606.532.186.112.386.187.601.223Z"/>
    <path class="cls-6" d="M425.499,256.253c-4.494-1.881-8.959-3.851-13.776-4.792-2.087-.408-2.824-1.514-2.777-3.706.208-9.766.216-19.536.35-29.304.039-2.824,6.938-10.785,9.641-11.306,1.023-.197,1.705.362,2.319,1.004,2.539,2.654,5.051,5.332,7.573,8.001-1.302,1.379-.706,3.09-.715,4.645-.064,10.028-.114,20.057,0,30.083.027,2.382-.401,4.232-2.614,5.375Z"/>
    <path class="cls-6" d="M398.015,342.019c-1.339-.745-2.786-1.494-4.179-2.332-14.61-8.798-29.128-17.754-43.863-26.338-4.789-2.79-9.479-5.714-14.156-8.668-3.858-2.437.079-4.604.542-6.788.526-2.483,2.233-1.469,3.755-.574,20.368,11.984,40.748,23.948,60.725,36.579,1.007.637,3.443.995,1.941,3.082-1.303,1.812-1.7,4.592-4.765,5.039Z"/>
    <path class="cls-6" d="M179.392,335.851c2.119-2.119,4.922-3.197,7.425-4.716,17.313-10.511,34.99-20.419,51.958-31.5,5.527-3.61,6.077-3.323,8.679,1.258,1.601,2.818.371,3.836-1.769,5.108-18.189,10.812-36.331,21.704-54.524,32.509-6.991,4.152-7.035,4.077-11.769-2.66Z"/>
    <path class="cls-6" d="M512.452,317.062c-8.889.698-13.656-7.625-13.779-13.553-.157-7.592,6.04-14.035,13.566-14.141,7.656-.108,14.071,5.996,14.205,13.518.139,7.814-6.082,14.116-13.991,14.177Z"/>
    <path class="cls-6" d="M69.55,316.986c-7.561,0-13.379-5.958-13.185-13.742.154-6.185,4.453-14.188,13.145-14.037,7.654.132,14.308,6.405,14.388,13.938.083,7.691-6.294,13.842-14.349,13.841Z"/>
    <path class="cls-6" d="M508.308,386.455c-14.223.006-28.446.034-42.669-.011-1.543-.005-3.291.652-4.591-.848,3.136-7.286,8.924-8.351,16.203-7.992,11.668.575,23.385.154,35.925.154-1.996,3.566-3.433,6.131-4.869,8.697Z"/>
    <path class="cls-6" d="M122.394,386.344c-16.144.04-32.288.08-48.431.12-1.506-2.658-3.013-5.317-4.774-8.424,15.636,0,30.73.015,45.824-.021,1.617-.004,2.311.958,3.069,2.121,1.375,2.108,2.868,4.14,4.311,6.204Z"/>
    <path class="cls-6" d="M492.23,324.574c.104,1.147-.853,1.478-1.566,1.927-7.025,4.421-14.058,8.828-21.105,13.212-4.487,2.791-4.479-2.399-6.413-3.882-2.351-1.802.369-2.699,1.491-3.384,7.149-4.365,14.362-8.624,21.587-12.86,1.684-.987,5.989,2.646,6.007,4.986Z"/>
    <path class="cls-6" d="M94.916,318.397c.815.441,1.617.819,2.363,1.286,6.904,4.324,13.823,8.626,20.669,13.041.975.629,3.531,1.169,1.555,3.069-1.669,1.605-2.145,6.007-5.647,4.044-7.615-4.267-14.906-9.113-22.345-13.696-1.1-.678-1.417-1.461-.643-2.533,1.271-1.759,1.956-3.987,4.048-5.211Z"/>
    <path class="cls-6" d="M171.168,251.297c0,3.408.209,6.835-.104,10.214-.124,1.336,1.672,4.208-1.428,3.955-2.199-.18-5.071-.732-4.972-4.434.197-7.404.041-14.816.194-22.222.026-1.268-1.15-3.851,1.519-3.542,2.041.237,4.919.479,4.77,4.029-.167,3.994-.039,8-.039,12,.02,0,.04,0,.06,0Z"/>
    <path class="cls-6" d="M418.07,302.676c4.149.076,7.523,3.695,7.372,7.906-.144,4.005-3.239,7.21-6.975,7.222-3.957.013-8.183-3.915-8.235-7.656-.048-3.416,4.275-7.538,7.838-7.472Z"/>
    <path class="cls-6" d="M378.133,475.688c5.559-6.914,12.274-6.566,17.49.905,1.113,3.262.045,4.767-3.495,4.606-2.964-.135-5.94-.019-8.91-.019q-5.585,0-5.085-5.492Z"/>
    <path class="cls-6" d="M505.771,355.116c-1.623,0-3.247.022-4.87-.006-1.848-.031-3.191-.719-3.191-2.817,0-1.942.787-4.056,2.759-3.81,2.355.294,2.598-.752,3.104-2.383.543-1.747,1.607-3.296,3.665-3.35,2.426-.063,3.033,1.974,3.771,3.744.409.981.009,2.551,1.863,2.435,1.892-.119,2.725.825,2.59,2.674-.139,1.908-1.297,3.056-3.066,3.224-2.19.208-4.415.05-6.625.05,0,.08,0,.159,0,.239Z"/>
    <path class="cls-6" d="M76.586,355.066c-1.932-.003-3.882.158-5.792-.047-1.99-.214-3.187-1.559-3.398-3.557-.202-1.916.901-2.759,2.705-2.595,1.793.163,1.731-1.117,2.047-2.252.471-1.691,1.512-2.985,3.365-3.098,1.948-.119,3.157,1.28,3.449,2.901.379,2.102.967,2.504,3.133,2.02,1.92-.429,2.783,1.557,3.009,3.185.259,1.864-.839,3.208-2.725,3.404-1.912.199-3.86.044-5.793.041Z"/>
    <path class="cls-6" d="M365.143,238.356c-3.902-.071-6.263-2.426-6.286-6.268-.022-3.662,2.859-6.629,6.39-6.579,3.42.048,6.643,3.583,6.5,7.129-.136,3.374-2.92,5.785-6.604,5.718Z"/>
    <path class="cls-6" d="M364.871,249.278c3.604-.057,6.094,2.419,6.078,6.072-.017,3.791-2.193,5.654-5.723,5.978-3.172.291-6.604-2.881-6.525-5.774.091-3.342,2.925-6.224,6.17-6.276Z"/>
    <path class="cls-6" d="M316.404,160.296c-.699,1.563,1.426,4.347-1.543,5.457-3.54,1.324-5.363-.175-5.325-4.06.012-1.183.136-2.372.045-3.546-.216-2.792.428-4.326,3.806-4.357,3.757-.034,2.989,2.284,3.016,4.4.008.591.001,1.183.001,2.106Z"/>
    <path class="cls-6" d="M309.334,201.896c.624-1.547-1.208-4.004,1.051-5.38,2.737-1.667,5.919.212,5.998,3.345.034,1.331-.037,2.665.024,3.994.116,2.533.161,4.472-3.545,4.498-3.655.026-3.732-1.794-3.535-4.363.045-.588.007-1.183.007-2.093Z"/>
    <path class="cls-6" d="M272.812,196.353c-.33,1.434.76,3.36-1.263,4.632-1.812,1.14-3.834,1.153-5.538.524-1.933-.713-1.363-3.031-.834-4.273.832-1.954-2.152-5.257,2.035-5.953,4.805-.799,5.61-.095,5.6,5.07Z"/>
    <path class="cls-6" d="M425.499,256.253c2.214-1.143,2.642-2.993,2.614-5.375-.115-10.027-.064-20.056,0-30.083.01-1.555-.587-3.266.715-4.645,1.344,12.805.553,25.651.738,38.477.055,3.843-2.104,2.596-4.067,1.626Z"/>
    <path class="cls-6" d="M325.472,345.37c3.667.02,5.28,1.439,5.286,4.561.006,3.051-1.992,4.224-4.515,4.177-2.307-.043-4.007-1.568-3.915-4.069.085-2.335.299-4.916,3.144-4.669Z"/>
    <path class="cls-6" d="M252.809,349.923c.321-2.613.509-4.79,3.546-4.444,2.714.309,4.812,1.128,4.886,4.458.067,2.998-1.951,4.03-4.18,4.074-2.716.053-4.296-1.712-4.252-4.088Z"/>
    <path class="cls-6" d="M184.393,304.16c.995,3.604-.942,3.83-3.732,3.893-2.846.064-3.752-.676-3.671-3.635.081-2.977.42-4.5,4.027-4.441,3.461.057,4.012,1.502,3.376,4.182Z"/>
    <path class="cls-6" d="M417.934,291.8c-2.581.017-5.245.212-4.814-2.447.354-2.185,1.666-4.8,4.958-4.513,2.492.217,4.551,1.313,4.523,3.927-.039,3.518-3.047,2.874-4.666,3.033Z"/>
    <path class="cls-6" d="M272.835,217.344c.648,3.201-.876,3.955-3.894,4.043-3.29.096-3.4-1.511-3.503-4.037-.125-3.072.869-4.045,3.994-4.035,3.159.009,3.884,1.31,3.403,4.03Z"/>
    <path class="cls-6" d="M219.762,258.757c-2.956.67-4.084-.276-4.082-3.553.002-3.198,1.324-3.552,3.94-3.475,2.523.074,4.408-.145,4.341,3.535-.061,3.369-1.333,4.081-4.199,3.493Z"/>
    <path class="cls-6" d="M219.695,239.957c-2.455.329-4.019.101-4.065-3.275-.048-3.564,1.618-3.681,4.275-3.614,2.362.059,4.111-.145,4.104,3.309-.007,3.476-1.541,3.973-4.314,3.581Z"/>
    <path class="cls-6" d="M220.114,278.374c-2.569.146-4.485.538-4.396-2.884.085-3.283,1.053-4.337,4.372-4.252,2.805.072,3.704.684,3.75,3.652.053,3.423-1.315,4.119-3.725,3.485Z"/>
    <path class="cls-6" d="M164.832,304.531c.704,2.901-.774,3.409-3.537,3.495-3.081.096-3.492-1.122-3.57-3.798-.09-3.104.934-3.934,3.971-4.03,3.554-.112,3.35,1.864,3.136,4.333Z"/>
    <path class="cls-6" d="M268.846,153.65c2.375-.276,3.969-.054,4.01,3.063.046,3.404-1.664,3.785-4.385,3.903-2.744.119-3.489-.862-3.551-3.535-.074-3.15,1.282-3.905,3.926-3.43Z"/>
    <path class="cls-6" d="M220.413,220.606c-2.5-.209-4.75.819-4.739-2.78.012-3.981,2.329-3.983,5.147-4.208,2.782-.222,2.898,1.176,3.076,3.387.277,3.44-1.347,4.021-3.484,3.601Z"/>
    <path class="cls-6" d="M220.432,194.704c1.976-.292,3.606-.123,3.658,3.245.059,3.852-2.366,2.818-4.353,2.91-2.209.102-4.184.496-4.119-3.159.067-3.771,2.271-2.929,4.814-2.996Z"/>
    <path class="cls-6" d="M312.555,183.053c-2.303.406-3.406-.34-3.341-3.001.06-2.466.864-3.322,3.358-3.309,2.535.013,3.751.619,3.716,3.44-.035,2.797-1.488,3.153-3.733,2.87Z"/>
    <path class="cls-6" d="M312.922,226.778c-1.997.157-3.636.174-3.527-2.584.099-2.492.828-3.924,3.605-3.822,1.904.07,3.61-.016,3.392,2.718-.184,2.309-.574,4.206-3.47,3.689Z"/>
    <path class="cls-6" d="M219.828,296.223c-1.654-.173-3.919.877-4.045-2.431-.118-3.092,1.683-2.966,3.689-2.787,1.692.151,4.023-.972,4.088,2.399.055,2.917-1.463,3.179-3.731,2.82Z"/>
    <path class="cls-6" d="M365.487,199.037c-2.685.236-4.364.162-4.301-2.778.07-3.244,2.295-2.349,4.042-2.494,2.123-.177,3.774.084,3.744,2.916-.035,3.286-2.407,2.174-3.485,2.357Z"/>
    <path class="cls-6" d="M365.346,295.409c-1.609-.223-3.981.781-3.959-2.49.02-2.978,2.014-2.728,3.975-2.757,1.984-.03,3.821-.278,3.74,2.8-.077,2.926-1.948,2.366-3.757,2.447Z"/>
    <path class="cls-6" d="M161.92,287.656c-2.433.066-4.311.434-4.222-2.676.086-3.015,2.001-2.673,3.876-2.785,1.88-.113,3.299-.122,3.351,2.602.056,2.915-1.388,3.115-3.005,2.86Z"/>
    <path class="cls-6" d="M364.594,213.29c-1.2-.19-3.468.783-3.471-2.208-.002-3.069,2.084-3.087,4.298-3.06,1.885.023,3.711.017,3.67,2.648-.046,2.924-2.128,2.716-4.498,2.62Z"/>
    <path class="cls-6" d="M365.979,273.1c1.496-.161,3.097-.036,2.948,2.661-.138,2.496-1.654,2.75-3.618,2.7-1.99-.051-4.012.084-3.943-2.81.072-3.012,2.311-2.438,4.613-2.551Z"/>
    <path class="cls-6" d="M196.054,475.061c2.554-.559,5.242-2.263,7.366.862.369,2.739-.615,4.878-3.511,4.811-3.453-.08-3.858-2.89-3.854-5.672Z"/>
    <path class="cls-6" d="M268.53,178.685c-2.014.314-3.047-.347-3.102-2.798-.07-3.11,1.894-2.58,3.785-2.731,2.347-.186,3.022.763,3.016,3.034-.007,2.806-1.766,2.548-3.7,2.494Z"/>
    <path class="cls-6" d="M475.802,264.065c-1.213-.344-3.095.948-3.17-1.758-.078-2.825,1.687-2.659,3.498-2.547,1.587.098,3.871-.798,3.67,2.253-.195,2.963-2.526,1.667-3.997,2.052Z"/>
    <path class="cls-6" d="M476.275,278.381c-1.219-.531-3.47,1.111-3.599-1.836-.12-2.738,1.838-2.205,3.35-2.158,1.489.047,3.553-.591,3.736,1.93.207,2.852-2.066,1.723-3.487,2.064Z"/>
    <path class="cls-6" d="M463.306,292.742c-1.51-.074-3.365.608-3.267-2.174.094-2.684,1.905-2.109,3.437-2.142,1.642-.035,3.499-.205,3.413,2.283-.087,2.518-2.026,1.989-3.583,2.033Z"/>
    <path class="cls-6" d="M463.126,259.746c2.036-.126,3.816-.238,3.759,2.193-.063,2.678-2.096,2.26-3.859,2.347-1.887.093-3.13-.212-3.058-2.566.086-2.793,2.093-1.792,3.157-1.974Z"/>
    <path class="cls-6" d="M463.134,278.422c-1.732.079-3.152.244-3.1-2.076.06-2.665,1.897-2.023,3.396-2.12,1.716-.111,3.24-.137,3.071,2.385-.19,2.828-2.287,1.462-3.367,1.812Z"/>
    <path class="cls-6" d="M111.047,288.537c-1.458-.903-4.086.95-4.008-1.609.078-2.582,2.731-1.998,4.518-2.001,1.33-.002,3.385-.638,3.333,1.671-.071,3.169-2.84.737-3.843,1.938Z"/>
    <path class="cls-6" d="M111.121,243.81c-1.279-.482-3.659.996-3.46-1.931.206-3.044,2.639-1.502,4.063-1.649,1.154-.12,3.195-1,3.229,1.55.043,3.193-2.472,1.487-3.832,2.03Z"/>
    <path class="cls-6" d="M111.202,259.023c-1.277-.515-3.598.993-3.583-1.83.017-3.087,2.487-1.695,3.906-1.809,1.326-.107,3.53-.961,3.335,1.899-.191,2.805-2.412,1.188-3.659,1.739Z"/>
    <path class="cls-6" d="M476.561,288.973c2.12-.139,3.604-.032,3.249,2.202-.477,3.007-2.818,1.158-4.265,1.496-1.501.351-3.158.095-2.801-2.14.471-2.942,3.02-.695,3.816-1.557Z"/>
    <path class="cls-6" d="M111.419,303.437c-1.432-.432-3.538.75-3.547-1.737-.01-2.796,2.291-1.672,3.643-1.719,1.235-.043,3.321-.935,3.355,1.536.039,2.845-2.371,1.316-3.451,1.92Z"/>
    <path class="cls-6" d="M63.703,219.268c-.054,2.383-1.464,4.186-4.311,3.945-2.954.205-4.382-1.071-4.418-4.115-.027-2.731,1.241-4.382,3.829-4.418,2.838-.027,4.954,1.624,4.9,4.588Z"/>
    <path class="cls-6" d="M57.785,248.695c-.205,2.642-1.633,4.043-4.275,3.918-2.687-.134-3.99-1.776-3.793-4.373.232-2.919,2.178-3.918,4.891-3.784,2.767.134,3.365,1.892,3.177,4.24Z"/>
    <path class="cls-6" d="M529.63,252.586c-2.901.143-4.989-1.25-5.061-4.311-.054-2.642,1.901-4.132,4.311-4.132,2.437-.009,4.784.83,4.552,4.132.33,2.829-1.232,4.186-3.802,4.311Z"/>
    <path class="cls-6" d="M528.8,219.143c-.036,2.928-1.865,4.141-4.909,4.106-2.383-.107-4.016-1.375-3.972-4.079.054-2.892,1.848-4.231,4.65-4.132,2.588.089,4.257,1.419,4.231,4.106Z"/>
    <path class="cls-6" d="M60.99,177.703c.036,2.008-1.187,3.624-4.597,3.552-1.196-.062-2.972-.973-2.901-3.267.054-1.973,1.651-3.008,3.677-3.061,1.99-.045,3.784.723,3.82,2.776Z"/>
    <path class="cls-6" d="M318.303,48.292c.681,13.194-10.962,27.443-26.882,27.174-15.275-.258-27.243-10.8-27.84-25.456-.605-14.836,10.401-28.952,27.266-28.672,14.269.238,28.43,11.408,27.455,26.954Z"/>
    <path class="cls-6" d="M434.099,107.423c-7.69.086-13.897-5.997-13.983-13.704-.089-7.904,6.131-14.308,13.956-14.368,7.706-.06,14.224,6.224,14.156,13.65-.069,7.623-6.648,14.338-14.129,14.422Z"/>
    <path class="cls-6" d="M147.701,107.369c-7.631-.029-13.406-6.163-13.34-14.17.067-7.966,6.199-13.989,14.179-13.926,7.511.059,13.671,6.117,13.666,13.438-.006,8.349-6.279,14.689-14.506,14.658Z"/>
    <path class="cls-6" d="M139.677,209.125c-.373,2.844-1.907,4.882-4.809,4.852-2.595-.027-5.231-1.269-5.399-4.249-.179-3.169,2.346-4.695,5.114-5.098,3.148-.458,4.406,1.802,5.095,4.495Z"/>
    <path class="cls-6" d="M176.876,191.069c3.343.077,5.424,1.506,5.578,4.385.148,2.777-1.469,5.143-4.479,4.916-2.911-.219-5.529-1.961-5.496-5.28.027-2.713,2.138-3.936,4.397-4.02Z"/>
    <path class="cls-6" d="M198.805,166.993c-3.017,2.071-5.846,1.142-7.935-1.848-.544-4.668,2.213-5.712,6.078-5.543.303.071.607.152.91.223.179.107.384.178.589.232,1.098,2.276,3.588,4.722.357,6.935Z"/>
    <path class="cls-6" d="M173.832,163.896c0,2.454-1.214,4.329-3.508,5.641-1.107.634-2.481.259-3.222-.527-1.964-2.08-2.446-4.597-1.267-7.31l-.027-.018c.348-.286.705-.562,1.053-.839,2.517-.384,4.909-.33,6.846,1.669h.009c.08.482.116.946.116,1.383Z"/>
    <path class="cls-6" d="M188.788,177.786c2.518.373,4.26,1.759,4.463,4.225.214,2.609-1.48,4.221-4.009,4.392-2.795.189-4.594-1.413-4.658-4.206-.06-2.623,1.882-3.798,4.204-4.411Z"/>
    <path class="cls-6" d="M371.438,163.387c-3.026,2.981-6.114,1.821-9.157-.045-.054-1.767-.116-3.525-.179-5.293,1.062-.518,1.651-1.419,2.026-2.499,2.187-.544,4.364-.446,6.56,0h.009c.161.303.339.607.518.91.062.107.125.205.178.303.187.303.366.616.536.919.991,1.803,1.589,3.65-.491,5.703Z"/>
    <path class="cls-6" d="M465.662,231.621c.17,2.669-1.08,4.106-4.132,4.195-3.169.08-4.409-1.964-4.516-4.373-.116-2.535,1.428-4.713,4.302-4.605,2.606.089,4.445,1.544,4.347,4.784Z"/>
    <path class="cls-6" d="M394.84,169.438c-1.294,1.321-2.936,1.392-4.472.812-2.829-1.062-2.517-3.561-2.356-5.917.268-.321.527-.634.794-.946.312-.268.634-.536.946-.803l3.508-.187c.58.339,1.169.669,1.749,1.009,1,2.044,1.723,4.079-.17,6.034Z"/>
    <path class="cls-6" d="M378.828,133.88c-.375,3.16-2.106,5.319-5.034,5.177-2.588-.125-3.793-2.535-3.704-5.078.107-2.811,1.901-4.284,4.632-4.213,2.588.071,3.909,1.714,4.106,4.115Z"/>
    <path class="cls-6" d="M349.642,138.53c-.187,2.74-1.562,4.4-4.463,4.391-2.829-.009-4.534-1.482-4.472-4.373.062-2.785,1.66-4.472,4.472-4.525,2.874-.062,4.311,1.607,4.463,4.507Z"/>
    <path class="cls-6" d="M344.858,119.725c-.054,2.687-2.142,3.99-4.409,3.99-2.776.009-4.195-1.99-4.061-4.766.116-2.428,1.41-3.82,5.168-3.588,1.526.187,3.356,1.517,3.302,4.364Z"/>
    <path class="cls-6" d="M219.36,128.802c-.161,3.142-1.946,4.454-4.962,4.32-2.66-.125-4.15-1.58-4.088-4.231.071-3.177,2.276-4.489,5.043-4.409,2.454.071,4.186,1.464,4.007,4.32Z"/>
    <path class="cls-6" d="M243.396,120.019c.098,2.811-1.544,4.561-4.293,4.686-2.588.116-4.275-1.526-4.4-4.07-.134-2.749,1.33-4.463,3.99-4.579,2.919.045,4.614,1.276,4.704,3.963Z"/>
    <path class="cls-6" d="M208.516,145.938c-.027,2.66-1.642,3.954-4.141,4.141-2.919-.036-4.659-1.446-4.65-4.266.009-2.74,1.99-3.865,4.472-3.847,2.499.027,4.347,1.196,4.32,3.972Z"/>
    <path class="cls-6" d="M120.227,152.293c-.071,2.829-2.115,3.811-4.472,3.758-2.606-.062-4.07-1.919-3.927-4.382.134-2.383,1.598-4.043,4.248-4.186,2.678.509,4.231,2.035,4.15,4.811Z"/>
    <path class="cls-6" d="M469.205,151.508c.187,2.874-1.517,4.275-3.99,4.391-2.633.125-4.079-1.642-4.186-4.213-.116-2.651,1.285-4.275,3.972-4.338,2.722-.062,3.945,1.633,4.204,4.159Z"/>
    <path class="cls-6" d="M379.578,85.094c.089,3.008-2.071,4.329-4.757,4.454-3.088-.009-4.686-1.562-4.668-4.329.027-2.874,1.562-4.775,4.632-4.82,3.07-.045,4.721,1.964,4.793,4.695Z"/>
    <path class="cls-6" d="M202.527,91.994c-2.847.125-4.427-1.499-4.498-4.311-.08-2.633,1.482-4.016,4.016-4.436,2.544.134,4.311,1.437,4.498,3.972.196,2.651-1.089,4.659-4.016,4.775Z"/>
    <path class="cls-6" d="M291.021,432.268c-6.616.104-13.182-6.226-13.404-12.923-.235-7.078,6.232-13.52,13.613-13.561,7.197-.04,12.666,5.289,12.836,12.506.179,7.592-5.673,13.862-13.046,13.977Z"/>
  </g>
</svg>
